<svg xmlns="http://www.w3.org/2000/svg" viewBox="0 0 500 449.47"><title>home-blue</title><g style="isolation:isolate"><g id="OBJECTS"><circle cx="256.59" cy="197.07" r="181.5" style="fill:#fff5ec"/><rect x="335.09" y="85.57" width="54" height="7" rx="3.26" style="fill:#fff"/><rect x="335.09" y="99.57" width="54" height="7" rx="3.26" style="fill:#fff"/><rect x="369.09" y="113.57" width="54" height="7" rx="3.26" style="fill:#fff"/><rect x="369.09" y="127.57" width="54" height="7" rx="3.26" style="fill:#fff"/><path d="M98.83,124.57h39.53a2.73,2.73,0,0,1,2.73,2.73v.53a2.74,2.74,0,0,1-2.74,2.74H98.83a2.73,2.73,0,0,1-2.73-2.73v-.53A2.73,2.73,0,0,1,98.83,124.57Z" style="fill:#fff"/><rect x="96.09" y="136.57" width="45" height="6" rx="2.73" style="fill:#fff"/><path d="M127.83,148.57h39.53a2.74,2.74,0,0,1,2.74,2.74v.53a2.73,2.73,0,0,1-2.73,2.73H127.83a2.74,2.74,0,0,1-2.74-2.74v-.53A2.73,2.73,0,0,1,127.83,148.57Z" style="fill:#fff"/><path d="M127.83,160.57h39.53a2.74,2.74,0,0,1,2.74,2.74v.53a2.73,2.73,0,0,1-2.73,2.73H127.83a2.74,2.74,0,0,1-2.74-2.74v-.53A2.73,2.73,0,0,1,127.83,160.57Z" style="fill:#fff"/><path d="M370.83,293.57h39.53a2.73,2.73,0,0,1,2.73,2.73v.53a2.73,2.73,0,0,1-2.73,2.73H370.83a2.74,2.74,0,0,1-2.74-2.74v-.53A2.73,2.73,0,0,1,370.83,293.57Z" style="fill:#fff"/><path d="M370.83,305.57h39.53a2.73,2.73,0,0,1,2.73,2.73v.53a2.73,2.73,0,0,1-2.73,2.73H370.83a2.74,2.74,0,0,1-2.74-2.74v-.53A2.74,2.74,0,0,1,370.83,305.57Z" style="fill:#fff"/><rect x="397.09" y="316.57" width="45" height="6" rx="2.73" style="fill:#fff"/><rect x="397.09" y="328.57" width="45" height="6" rx="2.73" style="fill:#fff"/><g style="opacity:0.54"><path d="M172.68,74.62a11.82,11.82,0,0,1-9.62-4.47,17.6,17.6,0,0,1-2.9-14.36c.87-3.78,2.93-6.62,5.79-8h0c12.72-6.12,18.79,2.88,20.8,7,3.6,7.4-2.9,15.74-6,17.66A16.34,16.34,0,0,1,172.68,74.62Zm-5.37-23.93c-2,1-3.44,3.05-4.1,5.88a14.51,14.51,0,0,0,2.32,11.71,8.63,8.63,0,0,0,7.16,3.29h.09a13.16,13.16,0,0,0,6.34-1.67,14.29,14.29,0,0,0,4.34-5.48c1-2.11,1.89-5.24.47-8.16-2.43-5-7.29-10.06-16.62-5.57Z" style="fill:#ffbe13"/><path d="M177.43,71.16s1.38,5.17,2.88,5.75c1.66.65,7-3.39,6.32-4.83s-4.16-4.88-4.16-4.88Z" style="fill:#ffbe13"/><path d="M180.05,71.25a1.57,1.57,0,0,1-1.33-.72l-6.28-9.88A1.57,1.57,0,1,1,175.08,59l6.29,9.88a1.58,1.58,0,0,1-.48,2.17A1.6,1.6,0,0,1,180.05,71.25Z" style="fill:#ffbe13"/><path d="M176.47,56.59a4.33,4.33,0,1,1-6.13,0A4.32,4.32,0,0,1,176.47,56.59Z" style="fill:#ffbe13"/><path d="M315.3,102a10.55,10.55,0,0,1-2.66-.34A12.6,12.6,0,0,1,304,92.6a14.51,14.51,0,0,1,2.34-11.89,14.05,14.05,0,0,1,10.49-5.89,8.92,8.92,0,0,1,9.18,6.7,7.27,7.27,0,0,1-3.92,8.8,3.64,3.64,0,0,1-1.84.4,4.68,4.68,0,0,1-7.71,3.14c-2-1.89-2-5.44-1-8a6.17,6.17,0,0,1,5.58-4.27h0a1.74,1.74,0,0,1,1.74,1.72,1.58,1.58,0,0,1,0,.38,1.74,1.74,0,0,1,.71.8c.21.47.39.93.56,1.37s.36.91.52,1.23a3.88,3.88,0,0,0,1.95-4.7,5.39,5.39,0,0,0-5.51-4.13,10.49,10.49,0,0,0-7.94,4.43,11.21,11.21,0,0,0-1.8,9,9,9,0,0,0,6.14,6.59c2.79.74,5.62-.28,8.19-2.94a1.75,1.75,0,1,1,2.51,2.43A12.5,12.5,0,0,1,315.3,102Zm1-16.68a3.46,3.46,0,0,0-1.45,1.83c-.65,1.66-.46,3.56.16,4.15.24.24.7.22,1.35-.06s.67-3.34,0-5.54A2.53,2.53,0,0,1,316.27,85.36Z" style="fill:#ffbe13"/><path d="M395.68,155.82c-.22,0-.45-.12-.68-.19-3.79-1.22-7-5.61-5.85-11.63.91-4.74,3.45-8.52,6.77-10.1a7.56,7.56,0,0,1,7,.15,1.71,1.71,0,1,1-1.62,3,4.08,4.08,0,0,0-3.88-.08c-2.31,1.1-4.19,4-4.89,7.66-.78,4.06,1.19,7,3.55,7.73,2,.64,3.85-.33,4.9-2.6a1.71,1.71,0,0,1,3.1,1.44C402.66,154.22,399.58,156.71,395.68,155.82Z" style="fill:#ffbe13"/><path d="M412.72,132.93l-.94.26-.38.1c-.15-.44-.29-.88-.43-1.32a1.07,1.07,0,0,0-2,.64c.14.42.26.84.38,1.26l-1.71.47c-1.52.42-1.13,3,.48,2.77l1.87-.27c.12.39.25.79.41,1.18a1.13,1.13,0,0,0,1.72.45.65.65,0,0,0,.31-.3,2.35,2.35,0,0,0,.06-1.69l.87-.12C415.83,136,415.19,132.28,412.72,132.93Z" style="fill:#ffbe13"/><path d="M423,131l-.94.26-.38.1c-.14-.44-.29-.88-.43-1.32a1.07,1.07,0,0,0-2,.64c.14.42.26.84.38,1.26l-1.71.48c-1.51.41-1.13,3,.49,2.76l1.87-.27c.12.4.25.79.41,1.19a1.13,1.13,0,0,0,1.71.44.75.75,0,0,0,.32-.29,2.43,2.43,0,0,0,.05-1.7l.87-.12C426.13,134,425.49,130.32,423,131Z" style="fill:#ffbe13"/><path d="M355.75,293.74a1.54,1.54,0,0,1-1.36-2.24l10-19.36a1.53,1.53,0,0,1,2.72,1.41l-10,19.36A1.53,1.53,0,0,1,355.75,293.74Z" style="fill:#ffbe13"/><path d="M350.41,289.73a1.54,1.54,0,0,1-1.36-.82l-5.67-10.85a1.52,1.52,0,0,1,.57-2l10.68-6.34a1.52,1.52,0,1,1,1.56,2.62l-9.43,5.61,5,9.56a1.53,1.53,0,0,1-.65,2.06A1.46,1.46,0,0,1,350.41,289.73Z" style="fill:#ffbe13"/><path d="M364.26,295.07a1.53,1.53,0,0,1-.59-2.94l11-4.61-4-11.32a1.53,1.53,0,1,1,2.88-1l4.51,12.69a1.53,1.53,0,0,1-.85,1.92L364.85,295A1.52,1.52,0,0,1,364.26,295.07Z" style="fill:#ffbe13"/><path d="M125.59,239.87A23.49,23.49,0,0,0,122,235L118.76,238a10.72,10.72,0,0,0-5.94-1.61,22.52,22.52,0,0,0-.58-4.26,10.42,10.42,0,0,0-6.91,2.51,11.12,11.12,0,0,0,1.8,2.94c.11.14.23.27.35.41l-.24.15c-3,2-4.55,4.08-5.16,6.13-.92-.16-1.85-.33-2.77-.47a1.19,1.19,0,0,0-.65,0,.94.94,0,0,0-.45.45,3.32,3.32,0,0,0,0,2.2c.23,1,.45,2.06.68,3.09.12.54.32,1.18.86,1.34a1.63,1.63,0,0,0,1.17-.28c.44-.23.9-.44,1.35-.65a15.88,15.88,0,0,0,.72,1.89,11.68,11.68,0,0,0,3.89,4.75l-2.33,1.94,1.67.86a12.57,12.57,0,0,0,5.83,1.9,18.75,18.75,0,0,0,.83-3.13,10.78,10.78,0,0,0,3.39-1,9.15,9.15,0,0,0,3.81-3.21,10.36,10.36,0,0,1,2,1.52.32.32,0,0,0,.27.13c.09,0,.14-.1.19-.18l1.33-2.21a12.14,12.14,0,0,0,1.49-3.61c-1.1-.29-2.12-.66-3.22-1a17.38,17.38,0,0,0-.17-6.27,16.57,16.57,0,0,0,3.61-2,.38.38,0,0,0,.14-.14A.36.36,0,0,0,125.59,239.87ZM113.86,251.6a4.27,4.27,0,0,1-5.83-2.35c-.66-1.51-1.31-3.95,1.88-6,2.62-1.7,5.54-.29,6.2,1.12S117,250.19,113.86,251.6Z" style="fill:#ffbe13"/><path d="M144.06,247.71a11.74,11.74,0,0,0-1.84-2.48l-1.67,1.49a5.6,5.6,0,0,0-3.06-.83,11.54,11.54,0,0,0-.3-2.19,5.35,5.35,0,0,0-3.55,1.29,6,6,0,0,0,.92,1.52l.19.21-.13.07A5.91,5.91,0,0,0,132,250l-1.42-.25a.73.73,0,0,0-.33,0,.43.43,0,0,0-.23.23,1.68,1.68,0,0,0,0,1.13l.35,1.59c.06.28.17.61.44.69a.81.81,0,0,0,.6-.14l.7-.34a10.06,10.06,0,0,0,.37,1,6,6,0,0,0,2,2.44l-1.2,1,.86.44a6.57,6.57,0,0,0,3,1,9.08,9.08,0,0,0,.42-1.61,5.73,5.73,0,0,0,1.75-.49,4.72,4.72,0,0,0,2-1.66,5.14,5.14,0,0,1,1,.78s.09.08.14.07.07-.05.1-.09c.23-.38.46-.76.68-1.14a6.31,6.31,0,0,0,.77-1.86c-.56-.14-1.09-.34-1.66-.52a9,9,0,0,0-.08-3.23,8.9,8.9,0,0,0,1.86-1,.17.17,0,0,0,.06-.08A.15.15,0,0,0,144.06,247.71Zm-6,6a2.18,2.18,0,0,1-3-1.21,2.21,2.21,0,0,1,1-3.09,2.3,2.3,0,0,1,3.19.58C139.52,250.75,139.62,253,138,253.74Z" style="fill:#ffbe13"/><path d="M429.92,196.51a23.76,23.76,0,0,0-3.57-4.83l-3.26,2.91a10.82,10.82,0,0,0-5.94-1.61,22.63,22.63,0,0,0-.58-4.26,10.45,10.45,0,0,0-6.91,2.51,11,11,0,0,0,1.8,2.94c.11.14.23.28.35.41l-.24.15c-3,2-4.55,4.08-5.16,6.13-.93-.16-1.85-.33-2.77-.47a1.19,1.19,0,0,0-.65,0,.94.94,0,0,0-.45.45,3.32,3.32,0,0,0,0,2.2c.23,1,.45,2.06.68,3.09.12.55.32,1.19.86,1.34a1.63,1.63,0,0,0,1.17-.28c.44-.23.9-.44,1.35-.65a16.75,16.75,0,0,0,.72,1.9,11.74,11.74,0,0,0,3.89,4.75l-2.33,1.93,1.67.86c1.83,1,3.76,1.94,5.83,1.9a17.69,17.69,0,0,0,.82-3.12,11.4,11.4,0,0,0,3.4-1,9.25,9.25,0,0,0,3.81-3.22,10.78,10.78,0,0,1,2,1.52.32.32,0,0,0,.27.13c.08,0,.14-.1.19-.17l1.33-2.22a12.14,12.14,0,0,0,1.49-3.61c-1.1-.29-2.12-.66-3.22-1a17.31,17.31,0,0,0-.17-6.26,17,17,0,0,0,3.61-2,.25.25,0,0,0,.13-.14A.33.33,0,0,0,429.92,196.51Zm-11.73,11.73a4.27,4.27,0,0,1-5.83-2.35c-.66-1.5-1.31-3.95,1.88-6,2.61-1.69,5.54-.28,6.2,1.13S421.29,206.83,418.19,208.24Z" style="fill:#ffbe13"/><path d="M448.39,204.35a11.74,11.74,0,0,0-1.84-2.48l-1.67,1.49a5.68,5.68,0,0,0-3.06-.83,11.65,11.65,0,0,0-.3-2.19,5.36,5.36,0,0,0-3.55,1.3,5.71,5.71,0,0,0,.92,1.51l.19.21-.13.08a5.9,5.9,0,0,0-2.66,3.15c-.47-.08-.94-.17-1.42-.24a.62.62,0,0,0-.33,0,.45.45,0,0,0-.23.24,1.68,1.68,0,0,0,0,1.13l.35,1.58c.06.29.17.62.44.7a.89.89,0,0,0,.6-.15c.23-.12.47-.23.7-.33a9,9,0,0,0,.37,1,6,6,0,0,0,2,2.44l-1.2,1,.86.44a6.46,6.46,0,0,0,3,1,8.86,8.86,0,0,0,.42-1.61,5.73,5.73,0,0,0,1.75-.49,4.72,4.72,0,0,0,2-1.66,6,6,0,0,1,1,.78s.09.08.14.07.07-.05.1-.09c.23-.38.46-.76.68-1.14a6.25,6.25,0,0,0,.77-1.85c-.57-.15-1.09-.34-1.66-.53a8.94,8.94,0,0,0-.08-3.22,8.87,8.87,0,0,0,1.85-1,.16.16,0,0,0,.07-.07C448.44,204.45,448.41,204.4,448.39,204.35Zm-6,6a2.38,2.38,0,0,1-2-4.3,2.27,2.27,0,0,1,3.18.57C443.85,207.39,444,209.66,442.35,210.39Z" style="fill:#ffbe13"/><path d="M98,185.39l-.55,0c-3.15-.27-6.42-3.09-6.58-8-.13-3.82,1.16-7.19,3.45-9a6,6,0,0,1,5.41-1.11,1.35,1.35,0,0,1-.71,2.61,3.27,3.27,0,0,0-3,.62c-1.59,1.26-2.52,3.86-2.42,6.78.11,3.28,2.15,5.17,4.1,5.34,1.67.15,2.92-.92,3.33-2.86a1.35,1.35,0,0,1,1.6-1.05,1.37,1.37,0,0,1,1.05,1.61C103.1,182.92,101.16,185.39,98,185.39Z" style="fill:#ffbe13"/><path d="M107.46,167.8a2,2,0,0,0-2.4,2.36,2.13,2.13,0,0,0,3,1.34,1.67,1.67,0,0,0,.5-.42,1.48,1.48,0,0,0,.56-.77A2.09,2.09,0,0,0,107.46,167.8Z" style="fill:#ffbe13"/><polygon points="108.93 176.5 108.93 176.5 108.93 176.5 108.93 176.5" style="fill:#ffbe13"/><path d="M110.89,176.55a1.46,1.46,0,0,0-.34-.55,1.88,1.88,0,0,0-1.46-1.09,1.82,1.82,0,0,0-1.84.86,2.07,2.07,0,0,0-.12,1.89,2,2,0,0,0,2.14,1.18A2,2,0,0,0,110.89,176.55Z" style="fill:#ffbe13"/><path d="M116.36,180.84a1.35,1.35,0,0,1-1.34-1.23l-1.73-18.73a1.36,1.36,0,0,1,2.7-.25l1.72,18.73a1.36,1.36,0,0,1-1.22,1.48Z" style="fill:#ffbe13"/></g><path d="M115.18,230.57a2.55,2.55,0,0,1-1.9-4.25,2,2,0,0,1,1.6-.75h.42a2.28,2.28,0,0,1,2,1.11A2.53,2.53,0,0,1,115.18,230.57Z" style="fill:#d2d2d2"/><path d="M174.16,230.57a2.53,2.53,0,0,1-2-4.11,2.07,2.07,0,0,1,1.71-.89h.41a2.28,2.28,0,0,1,2,1.11A2.53,2.53,0,0,1,174.16,230.57Zm-9.83,0a2.54,2.54,0,0,1-2-4.11,2.11,2.11,0,0,1,1.73-.89h.39a2.27,2.27,0,0,1,2,1.12A2.52,2.52,0,0,1,164.33,230.57Zm-9.83,0a2.54,2.54,0,0,1-2-4.09,2.11,2.11,0,0,1,1.76-.91h.36a2.31,2.31,0,0,1,2,1.12A2.54,2.54,0,0,1,154.5,230.57Zm-9.83,0a2.54,2.54,0,0,1-2-4.11,2.1,2.1,0,0,1,1.72-.89h.4a2.29,2.29,0,0,1,2,1.11A2.53,2.53,0,0,1,144.67,230.57Zm-9.83,0a2.54,2.54,0,0,1-2-4.09,2.11,2.11,0,0,1,1.76-.91h.36a2.31,2.31,0,0,1,2,1.12A2.54,2.54,0,0,1,134.84,230.57Zm-9.83,0a2.54,2.54,0,0,1-2-4.11,2.11,2.11,0,0,1,1.73-.89h.38a2.29,2.29,0,0,1,2,1.12A2.53,2.53,0,0,1,125,230.57Z" style="fill:#d2d2d2"/><path d="M183.94,230.57a2.56,2.56,0,0,1-1.88-4.27,1.94,1.94,0,0,1,1.56-.73h.45a2.28,2.28,0,0,1,2,1.1A2.53,2.53,0,0,1,183.94,230.57Z" style="fill:#d2d2d2"/><path d="M403.69,62.57a2.55,2.55,0,0,1-1.9-4.25,2,2,0,0,1,1.6-.75h.42a2.28,2.28,0,0,1,2,1.11A2.53,2.53,0,0,1,403.69,62.57Z" style="fill:#d2d2d2"/><path d="M462.67,62.57a2.54,2.54,0,0,1-2-4.09,2.11,2.11,0,0,1,1.76-.91h.36a2.31,2.31,0,0,1,2,1.12A2.53,2.53,0,0,1,462.67,62.57Zm-9.83,0a2.53,2.53,0,0,1-2-4.11,2.07,2.07,0,0,1,1.71-.89H453a2.28,2.28,0,0,1,2,1.11A2.53,2.53,0,0,1,452.84,62.57Zm-9.83,0a2.54,2.54,0,0,1-2-4.11,2.12,2.12,0,0,1,1.73-.89h.39a2.27,2.27,0,0,1,2,1.12A2.52,2.52,0,0,1,443,62.57Zm-9.83,0a2.54,2.54,0,0,1-2-4.09,2.11,2.11,0,0,1,1.76-.91h.36a2.31,2.31,0,0,1,2,1.12A2.54,2.54,0,0,1,433.18,62.57Zm-9.83,0a2.54,2.54,0,0,1-2-4.11,2.11,2.11,0,0,1,1.73-.89h.39a2.27,2.27,0,0,1,2,1.12A2.53,2.53,0,0,1,423.35,62.57Zm-9.83,0a2.54,2.54,0,0,1-2-4.11,2.1,2.1,0,0,1,1.72-.89h.4a2.29,2.29,0,0,1,2,1.11A2.53,2.53,0,0,1,413.52,62.57Z" style="fill:#d2d2d2"/><path d="M472.45,62.57a2.56,2.56,0,0,1-1.88-4.27,1.94,1.94,0,0,1,1.56-.73h.45a2.28,2.28,0,0,1,2,1.1A2.53,2.53,0,0,1,472.45,62.57Z" style="fill:#d2d2d2"/><path d="M74.25,79.57a2.56,2.56,0,0,1-1.89-4.27,1.94,1.94,0,0,1,1.56-.73h.45a2.28,2.28,0,0,1,2,1.1A2.53,2.53,0,0,1,74.25,79.57Z" style="fill:#d2d2d2"/><path d="M133.23,79.57a2.54,2.54,0,0,1-2-4.11,2.1,2.1,0,0,1,1.72-.89h.4a2.3,2.3,0,0,1,2,1.11A2.53,2.53,0,0,1,133.23,79.57Zm-9.83,0a2.53,2.53,0,0,1-2-4.09,2.11,2.11,0,0,1,1.75-.91h.36a2.28,2.28,0,0,1,2,1.12A2.53,2.53,0,0,1,123.4,79.57Zm-9.83,0a2.54,2.54,0,0,1-2-4.11,2.1,2.1,0,0,1,1.72-.89h.4a2.27,2.27,0,0,1,2,1.11A2.52,2.52,0,0,1,113.57,79.57Zm-9.83,0a2.53,2.53,0,0,1-2-4.09,2.11,2.11,0,0,1,1.75-.91h.36a2.28,2.28,0,0,1,2,1.12A2.53,2.53,0,0,1,103.74,79.57Zm-9.83,0a2.54,2.54,0,0,1-2-4.11,2.1,2.1,0,0,1,1.71-.89H94a2.27,2.27,0,0,1,2,1.11A2.53,2.53,0,0,1,93.91,79.57Zm-9.83,0a2.54,2.54,0,0,1-2-4.11,2.1,2.1,0,0,1,1.71-.89h.41a2.27,2.27,0,0,1,2,1.11A2.53,2.53,0,0,1,84.08,79.57Z" style="fill:#d2d2d2"/><path d="M143,79.57a2.55,2.55,0,0,1-1.89-4.25,1.93,1.93,0,0,1,1.59-.75h.42a2.29,2.29,0,0,1,2,1.1A2.54,2.54,0,0,1,143,79.57Z" style="fill:#d2d2d2"/><path d="M440.37,171.33a5.54,5.54,0,1,1,5.54-5.53A5.54,5.54,0,0,1,440.37,171.33Zm0-8.41a2.88,2.88,0,1,0,2.88,2.88A2.88,2.88,0,0,0,440.37,162.92Z" style="fill:#eddcce"/><path d="M316.69,38.82a5.54,5.54,0,1,1,5.54-5.54A5.55,5.55,0,0,1,316.69,38.82Zm0-8.42a2.88,2.88,0,1,0,2.88,2.88A2.88,2.88,0,0,0,316.69,30.4Z" style="fill:#eddcce"/><path d="M239,56.8a5.54,5.54,0,1,1,5.53-5.54A5.55,5.55,0,0,1,239,56.8Zm0-8.42a2.88,2.88,0,1,0,2.87,2.88A2.88,2.88,0,0,0,239,48.38Z" style="fill:#eddcce"/><path d="M125.81,73.7a5.54,5.54,0,1,1,5.54-5.54A5.55,5.55,0,0,1,125.81,73.7Zm0-8.41a2.88,2.88,0,1,0,2.88,2.87A2.88,2.88,0,0,0,125.81,65.29Z" style="fill:#eddcce"/><path d="M67.71,273.16a5.54,5.54,0,1,1,5.54-5.54A5.55,5.55,0,0,1,67.71,273.16Zm0-8.42a2.88,2.88,0,1,0,2.88,2.88A2.88,2.88,0,0,0,67.71,264.74Z" style="fill:#eddcce"/><path d="M141.57,331.35a5.54,5.54,0,1,1,5.53-5.53A5.54,5.54,0,0,1,141.57,331.35Zm0-8.41a2.88,2.88,0,1,0,2.87,2.88A2.88,2.88,0,0,0,141.57,322.94Z" style="fill:#eddcce"/><path d="M427.33,253.4a5.54,5.54,0,1,1,5.54-5.54A5.55,5.55,0,0,1,427.33,253.4Zm0-8.42a2.88,2.88,0,1,0,2.88,2.88A2.88,2.88,0,0,0,427.33,245Z" style="fill:#eddcce"/><path d="M187.12,207.26a5.54,5.54,0,1,1,5.54-5.53A5.54,5.54,0,0,1,187.12,207.26Zm0-8.41a2.88,2.88,0,1,0,2.88,2.88A2.88,2.88,0,0,0,187.12,198.85Z" style="fill:#eddcce"/><path d="M117.39,165a5.54,5.54,0,1,1,5.54-5.54A5.55,5.55,0,0,1,117.39,165Zm0-8.42a2.88,2.88,0,1,0,2.88,2.88A2.88,2.88,0,0,0,117.39,156.53Z" style="fill:#eddcce"/><path d="M183.84,42.57h-1.75V40.45a1.81,1.81,0,0,0-1.59-1.33,1.45,1.45,0,0,0-1.41,1.33v2.12h-1.93a1.17,1.17,0,0,0-1.33,1.22,2.3,2.3,0,0,0,1.33,1.78h1.93v1.56a1.46,1.46,0,0,0,1.41,1.33,1.82,1.82,0,0,0,1.59-1.33V45.57h1.75a2.32,2.32,0,0,0,1.33-1.78A1.18,1.18,0,0,0,183.84,42.57Z" style="fill:#eddcce"/><path d="M60.33,199.57H58.09v-1.91a1,1,0,0,0-1.1-1.33c-.74,0-1.33.6-1.9,1.33v1.91H53.65A1.5,1.5,0,0,0,52.32,201a1.74,1.74,0,0,0,1.33,1.56h1.44v1.78c.57.73,1.16,1.33,1.9,1.33a1,1,0,0,0,1.1-1.33v-1.78h2.24A1.76,1.76,0,0,0,61.66,201,1.51,1.51,0,0,0,60.33,199.57Z" style="fill:#eddcce"/><path d="M377.77,324.57h-1.68v-1.82a2,2,0,0,0-1.66-1.33,1.34,1.34,0,0,0-1.34,1.33v1.82h-2a1.65,1.65,0,0,0-1.33,1.52,1.58,1.58,0,0,0,1.33,1.48h2v1.86a1.34,1.34,0,0,0,1.34,1.33,2,2,0,0,0,1.66-1.33v-1.86h1.68a1.58,1.58,0,0,0,1.33-1.48A1.65,1.65,0,0,0,377.77,324.57Z" style="fill:#eddcce"/><path d="M323.31,208.57h-2.22V207.1a1.06,1.06,0,0,0-1.12-1.33c-.73,0-1.33.59-1.88,1.33v1.47h-1.46c-.73.54-1.33,1.13-1.33,1.87a1.08,1.08,0,0,0,1.33,1.13h1.46v2.21c.55.73,1.15,1.33,1.88,1.33a1.07,1.07,0,0,0,1.12-1.33v-2.21h2.22a1.08,1.08,0,0,0,1.33-1.13C324.64,209.7,324.05,209.11,323.31,208.57Z" style="fill:#eddcce"/><path d="M122.77,214.57h-1.68V213a2,2,0,0,0-1.66-1.33,1.34,1.34,0,0,0-1.34,1.33v1.56h-2a2.28,2.28,0,0,0-1.33,1.78,1.18,1.18,0,0,0,1.33,1.22h2v2.12a1.34,1.34,0,0,0,1.34,1.33,2,2,0,0,0,1.66-1.33v-2.12h1.68a1.18,1.18,0,0,0,1.33-1.22A2.3,2.3,0,0,0,122.77,214.57Z" style="fill:#eddcce"/><path d="M73,102.57H71.09v-1.7a1.46,1.46,0,0,0-1.41-1.33,1.8,1.8,0,0,0-1.59,1.33v1.7H66.34A1.92,1.92,0,0,0,65,104.21a1.38,1.38,0,0,0,1.33,1.36h1.75v2a1.8,1.8,0,0,0,1.59,1.33,1.46,1.46,0,0,0,1.41-1.33v-2H73a1.38,1.38,0,0,0,1.33-1.36A1.92,1.92,0,0,0,73,102.57Z" style="fill:#eddcce"/><path d="M286.19,66.57h-2.1V64.66a1.22,1.22,0,0,0-1.25-1.33,2.23,2.23,0,0,0-1.75,1.33v1.91H279.5A1.5,1.5,0,0,0,278.17,68a1.77,1.77,0,0,0,1.33,1.57h1.59v1.77a2.21,2.21,0,0,0,1.75,1.33,1.21,1.21,0,0,0,1.25-1.33V69.57h2.1A1.77,1.77,0,0,0,287.52,68,1.5,1.5,0,0,0,286.19,66.57Z" style="fill:#eddcce"/><path d="M348.15,115.57h-2.06v-1.51a1.27,1.27,0,0,0-1.29-1.33,2.12,2.12,0,0,0-1.71,1.33v1.51h-1.63a2.47,2.47,0,0,0-1.33,1.83,1.12,1.12,0,0,0,1.33,1.17h1.63v2.17a2.1,2.1,0,0,0,1.71,1.33,1.27,1.27,0,0,0,1.29-1.33v-2.17h2.06a1.12,1.12,0,0,0,1.33-1.17A2.47,2.47,0,0,0,348.15,115.57Z" style="fill:#eddcce"/><path d="M432,69.57h-1.88V67.44a1.54,1.54,0,0,0-1.46-1.33,1.7,1.7,0,0,0-1.54,1.33v2.13h-1.8A1.17,1.17,0,0,0,424,70.78a2.35,2.35,0,0,0,1.33,1.79h1.8v1.55a1.71,1.71,0,0,0,1.54,1.33,1.55,1.55,0,0,0,1.46-1.33V72.57H432a2.33,2.33,0,0,0,1.33-1.79A1.16,1.16,0,0,0,432,69.57Z" style="fill:#eddcce"/><path d="M28.64,401.83c-2.71-7.4-7.78-13.29-11.52-20.11a52.87,52.87,0,0,1-6.32-21.14c-.8-10.06,2.45-19.55,3.57-29.45.83-7.38,1.19-15-1.79-21.91-2.58-6-6.59-11.3-8.92-17.43-2.2-5.8-1.34-16.05,6.85-15.87,6.71.14,11.68,4.41,15.06,9.8a51.83,51.83,0,0,1,6.58,14.35,66.26,66.26,0,0,1,1.66,14.4c.47,13.32.23,26.84-3.21,39.72-1.05,3.95-2.4,7.82-3.23,11.82a47.23,47.23,0,0,0,7.46,36.21" style="fill:#008dc4"/><path d="M26.24,334.73c1.76-1.15,4.13-2.83,6.64-4.81l1-.84c0-.25,0-.51,0-.76l-1.41,1.13c-2.51,2-4.83,3.71-6.52,4.94-.88.65-1.58,1.16-2.05,1.52a79.24,79.24,0,0,0,.48-9.1c0-1.66-.07-3.28-.17-4.86.4-.23,1.4-.93,2.8-2,1.78-1.33,4.18-3.23,6.75-5.43v-.07l0-.68-.26.22c-2.6,2.23-5,4.21-6.72,5.64-1.27,1.05-2.17,1.8-2.55,2.16a79.08,79.08,0,0,0-2.11-13.43c-.05-.21-.1-.4-.16-.6.37-.36,1.26-1.36,2.51-2.8l6.32-7.26.46-.51c-.08-.21-.15-.43-.22-.64l-.68.76c-2.48,2.83-4.66,5.46-6.2,7.39-.77,1-1.38,1.75-1.79,2.31l-.43.61a75.26,75.26,0,0,0-3.71-10.84s.06,0,.06,0l-.05,0c.21-.26.8-1.28,1.66-2.8l4-7,1.17-2-.37-.54-1.31,2.22c-1.58,2.74-2.93,5.26-3.85,7.12a28.27,28.27,0,0,0-1.35,2.93l-.07-.16c-.6-1.35-1.09-2.39-1.46-3.08a7.6,7.6,0,0,0-.57-1,5.91,5.91,0,0,0,.43,1.11c.32.71.76,1.76,1.32,3.13v0a26.21,26.21,0,0,1-2.6-.43c-1.87-.38-4.41-1.17-7.29-1.77-1.21-.26-2.38-.49-3.46-.68.09.21.18.42.28.63,1,.19,2,.4,3.05.63,2.86.6,5.42,1.31,7.34,1.6a13.07,13.07,0,0,0,2.75.19,85.17,85.17,0,0,1,3.44,10.69c-1.2-.25-4.53-.71-8.48-1.16l-1.74-.19c.1.21.21.41.31.62l1.36.16c4,.45,7.43.75,8.6.76.06.26.13.52.19.79a81.9,81.9,0,0,1,1.94,13.07c-.39-.26-1-.63-1.75-1.06-1.46-.84-3.53-1.92-5.88-3L14.64,317c0,.22,0,.45.08.67l.95.42c2.34,1,4.42,2.05,5.93,2.8.86.42,1.53.75,2,.94q.15,2.42.15,5a83.59,83.59,0,0,1-.58,9.56c-.82-.52-3.51-1.9-6.61-3.7l-2.18-1.3c0,.2-.05.4-.08.61.62.39,1.27.79,2,1.19a53.7,53.7,0,0,0,5,2.59,18.45,18.45,0,0,0,1.9.78c-.41,3.76-1,7.65-1.56,11.64-1.19-.67-3.74-2-6.67-3.54l-2.55-1.37c0,.19-.08.38-.11.57.74.43,1.54.87,2.39,1.32,2.05,1.1,3.94,2,5.34,2.63.64.28,1.17.5,1.56.65l-.12.88c-.53,3.85-1,7.63-1.14,11.31-.94-.62-3.54-2.05-6.59-3.76l-2.93-1.64c0,.2,0,.41,0,.61.81.49,1.71,1,2.66,1.54,2,1.09,3.75,2,5.07,2.65.81.39,1.43.66,1.8.8,0,.08,0,.15,0,.23a63.09,63.09,0,0,0,.46,10.66c-.76-.49-3.22-1.72-6.17-3.09l-2.7-1.22c0,.22.09.44.14.67l2.31,1.09c3.08,1.42,5.68,2.52,6.44,2.73,0,.05,0,.1,0,.15a62.17,62.17,0,0,0,1.9,8.93,63.11,63.11,0,0,0-6.18-1.48l-.53-.1.35.67h.06a57.79,57.79,0,0,0,6.34,1.06,61,61,0,0,0,3.27,8.73c.19.41.38.79.57,1.19A42.33,42.33,0,0,0,22.25,390l.45.69a36.52,36.52,0,0,0,3.94.66,59.44,59.44,0,0,0,5.71,9.29c.42.54.81,1,1.17,1.52l.31,0-.09-.12-1.14-1.6A65,65,0,0,1,27.07,391a23.11,23.11,0,0,0,1.22-2.58l-.24-.86c-.5,1.38-.91,2.51-1.11,3.16-.16-.35-.33-.7-.49-1.07a60.66,60.66,0,0,1-3.21-8.92,35.94,35.94,0,0,0,3.27-2.79c0-.25,0-.5,0-.75-1.47,1.47-2.7,2.66-3.31,3.29A63.49,63.49,0,0,1,21.44,372l0-.3c.9-.75,3.1-2.87,5.63-5.44l.37-.38.24-1.08-1,1c-2.4,2.45-4.42,4.6-5.24,5.58A63,63,0,0,1,21,361.09l0-.45c.43-.25,1.08-.64,1.89-1.15,1.49-.95,3.52-2.32,5.71-3.91l2-1.49c.07-.29.14-.58.22-.87l-2.57,1.88-5.6,4c-.69.5-1.25.91-1.64,1.22.18-3.55.62-7.2,1.13-10.93l.15-1.07c1.17-.6,4.38-2.54,8.13-4.91L33,341.83c0-.24.05-.48.08-.72L30.13,343c-3.6,2.28-6.62,4.29-7.78,5.16.59-4.08,1.17-8.07,1.57-11.93C24.43,335.89,25.23,335.4,26.24,334.73Z" style="fill:#007ab8"/><path d="M48.37,401.83c2.72-7.4,7.79-13.29,11.53-20.11a52.86,52.86,0,0,0,6.31-21.14c.81-10.06-2.45-19.55-3.56-29.45-.83-7.38-1.2-15,1.78-21.91,2.59-6,6.59-11.3,8.92-17.43,2.21-5.8,1.34-16.05-6.85-15.87-6.71.14-11.68,4.41-15.06,9.8a52.12,52.12,0,0,0-6.58,14.35,66.88,66.88,0,0,0-1.66,14.4c-.47,13.32-.23,26.84,3.21,39.72,1.05,3.95,2.4,7.82,3.23,11.82a47.27,47.27,0,0,1-7.45,36.21" style="fill:#09f"/><path d="M50.77,334.73c-1.75-1.15-4.12-2.83-6.64-4.81-.35-.28-.7-.56-1-.84,0-.25,0-.51,0-.76l1.42,1.13c2.5,2,4.82,3.71,6.51,4.94.88.65,1.58,1.16,2.05,1.52a79.24,79.24,0,0,1-.48-9.1c0-1.66.07-3.28.17-4.86-.4-.23-1.4-.93-2.8-2-1.78-1.33-4.18-3.23-6.75-5.43v-.07l0-.68.26.22c2.6,2.23,5,4.21,6.72,5.64,1.27,1.05,2.18,1.8,2.55,2.16a79.08,79.08,0,0,1,2.11-13.43c.05-.21.11-.4.16-.6-.37-.36-1.26-1.36-2.51-2.8l-6.32-7.26-.46-.51c.08-.21.15-.43.23-.64.22.25.44.51.67.76,2.49,2.83,4.67,5.46,6.2,7.39.77,1,1.38,1.75,1.79,2.31.19.26.34.46.44.61a75.44,75.44,0,0,1,3.7-10.84s-.06,0-.06,0l.06,0c-.21-.26-.8-1.28-1.66-2.8l-4-7c-.39-.67-.77-1.32-1.17-2l.37-.54c.43.71.86,1.45,1.31,2.22,1.58,2.74,2.93,5.26,3.85,7.12a28.27,28.27,0,0,1,1.35,2.93,1.11,1.11,0,0,0,.07-.16c.61-1.35,1.09-2.39,1.46-3.08a5.91,5.91,0,0,1,.58-1,8,8,0,0,1-.44,1.11c-.32.71-.76,1.76-1.31,3.13l0,0a25.82,25.82,0,0,0,2.61-.43c1.86-.38,4.41-1.17,7.28-1.77,1.22-.26,2.38-.49,3.47-.68l-.29.63c-1,.19-2,.4-3,.63-2.86.6-5.42,1.31-7.34,1.6a13,13,0,0,1-2.74.19,83.32,83.32,0,0,0-3.45,10.69c1.2-.25,4.54-.71,8.49-1.16l1.73-.19c-.1.21-.21.41-.31.62L64.2,307c-4,.45-7.43.75-8.59.76-.07.26-.14.52-.2.79a81.9,81.9,0,0,0-1.94,13.07c.39-.26,1-.63,1.75-1.06,1.46-.84,3.53-1.92,5.88-3l1.27-.55c0,.22,0,.45-.08.67l-.95.42c-2.33,1-4.42,2.05-5.93,2.8-.86.42-1.53.75-2,.94q-.15,2.42-.15,5a83.59,83.59,0,0,0,.58,9.56c.82-.52,3.51-1.9,6.61-3.7l2.19-1.3c0,.2,0,.4.07.61-.61.39-1.27.79-2,1.19a55,55,0,0,1-5,2.59,18.45,18.45,0,0,1-1.9.78c.41,3.76,1,7.65,1.56,11.64,1.19-.67,3.74-2,6.67-3.54l2.56-1.37c0,.19.07.38.1.57-.74.43-1.54.87-2.38,1.32-2.06,1.1-3.95,2-5.34,2.63-.65.28-1.18.5-1.57.65,0,.3.08.59.13.88.52,3.85,1,7.63,1.13,11.31.94-.62,3.54-2.05,6.59-3.76l2.93-1.64c0,.2,0,.41,0,.61-.81.49-1.71,1-2.66,1.54-2,1.09-3.75,2-5.07,2.65-.8.39-1.43.66-1.8.8,0,.08,0,.15,0,.23a61.07,61.07,0,0,1-.46,10.66c.77-.49,3.22-1.72,6.17-3.09l2.7-1.22c0,.22-.09.44-.14.67l-2.31,1.09c-3.07,1.42-5.68,2.52-6.44,2.73,0,.05,0,.1,0,.15a65,65,0,0,1-1.9,8.93,62.65,62.65,0,0,1,6.17-1.48l.53-.1c-.11.22-.23.44-.34.67h-.07a57.79,57.79,0,0,1-6.34,1.06,61,61,0,0,1-3.27,8.73c-.19.41-.38.79-.57,1.19A42,42,0,0,1,54.77,390l-.45.69a36.58,36.58,0,0,1-4,.66,59.44,59.44,0,0,1-5.71,9.29l-1.17,1.52-.31,0,.09-.12,1.14-1.6A65,65,0,0,0,49.94,391a23.11,23.11,0,0,1-1.22-2.58c.08-.29.17-.58.24-.86.5,1.38.91,2.51,1.11,3.16.16-.35.33-.7.49-1.07a60.66,60.66,0,0,0,3.21-8.92,36.2,36.2,0,0,1-3.26-2.79c0-.25,0-.5,0-.75,1.47,1.47,2.7,2.66,3.31,3.29A63.49,63.49,0,0,0,55.57,372l0-.3c-.89-.75-3.1-2.87-5.63-5.44l-.37-.38-.24-1.08,1,1c2.41,2.45,4.42,4.6,5.24,5.58A61.89,61.89,0,0,0,56,361.09c0-.15,0-.3,0-.45-.44-.25-1.08-.64-1.89-1.15-1.5-.95-3.53-2.32-5.71-3.91l-2-1.49-.21-.87,2.56,1.88,5.6,4c.69.5,1.25.91,1.64,1.22-.18-3.55-.61-7.2-1.12-10.93-.05-.36-.1-.71-.16-1.07-1.16-.6-4.38-2.54-8.13-4.91L44,341.83c0-.24-.05-.48-.08-.72L46.88,343c3.6,2.28,6.62,4.29,7.78,5.16-.59-4.08-1.17-8.07-1.57-11.93C52.58,335.89,51.79,335.4,50.77,334.73Z" style="fill:#007ab8"/><path d="M41.38,404.58c-2.27-1.57-3.6-4.15-4.7-6.68-4.56-10.46-7.45-22.74-6-34.15,1.53-12,4.16-24.11,3.45-36.24a83.54,83.54,0,0,0-4-20.2c-3.66-11.6-10.51-32.45,1.19-42,5.91-4.82,12.54,1.49,16.19,6.1,6.15,7.78,8.13,18.64,9.55,28.19,3,19.94-3.85,39.17-9.55,58a158.68,158.68,0,0,0-6.28,29.74,34.09,34.09,0,0,0-.06,8.68c.68,4.45,3.24,6.9,5.81,10.28" style="fill:#007ab8"/><path d="M41.54,403.93c-.19-.45-.4-.92-.62-1.43s-.47-1.24-.75-2a57.46,57.46,0,0,1-2.9-11.71c.46-.24,1.35-.79,2.56-1.59l1.53-1,.09-.74-1.89,1.41c-1.09.81-1.9,1.42-2.31,1.77-.06-.4-.12-.8-.17-1.21a81.79,81.79,0,0,1-.5-12c1.21-.65,4-2.33,7.38-4.46.07-.3.13-.59.2-.89-3.47,2.24-6.33,4.15-7.56,5.06.07-2.48.22-5.07.48-7.75.21-2.26.49-4.59.82-7A41.69,41.69,0,0,1,41.27,358c2-1.35,4.73-3.15,7.72-5.18l.3-1C46,354,43.13,356,41,357.58a24.52,24.52,0,0,0-2.61,2.15c-.19.18-.33.33-.45.46.21-1.49.43-3,.67-4.52.5-3.15,1.06-6.38,1.6-9.68.66-.31,1.7-.84,3.06-1.56,2.3-1.22,5.47-2.94,8.94-4.88l.85-.47.24-.88-1.4.78c-3.48,1.94-6.61,3.73-8.86,5-1.22.72-2.16,1.29-2.78,1.68l.42-2.63c.66-4.32,1.21-8.57,1.43-12.7,0-.8.08-1.59.1-2.38l.65-.38c.77-.47,1.86-1.17,3.19-2.06,2.66-1.8,6.25-4.42,10-7.55l1.38-1.17c0-.31.05-.62.08-.92l-1.88,1.59c-3.75,3.12-7.27,5.79-9.85,7.67l-3.07,2.22-.5.37c.11-3.2.08-6.32-.07-9.31s-.43-6-.78-8.8c.17-.13.44-.37.83-.72l2.67-2.47c2.24-2.1,5.33-5,8.78-8.15l2.81-2.55c0-.25-.09-.49-.13-.74-1,.9-2,1.83-3.11,2.81-3.46,3.16-6.51,6.12-8.67,8.3-1.08,1.09-1.94,2-2.52,2.62-.31.33-.54.59-.68.76-.08-.6-.15-1.2-.24-1.78-.46-3.35-1-6.44-1.64-9.24-.4-1.88-.82-3.62-1.23-5.24l.49-.41c.66-.58,1.6-1.43,2.74-2.5,2.3-2.14,5.41-5.16,8.75-8.59.69-.7,1.36-1.4,2-2.08-.09-.22-.19-.43-.28-.65l-2.2,2.28L41.15,290l-2.6,2.64c-.14.15-.26.27-.36.39-.8-3.1-1.57-5.69-2.2-7.67-.47-1.53-.89-2.71-1.17-3.5a7.12,7.12,0,0,0-.48-1.2,7.06,7.06,0,0,0,.31,1.25c.3,1,.63,2.2,1,3.54.56,2,1.26,4.55,2,7.62-.48-.26-1.56-.72-3.07-1.33-2.11-.86-5-2-8.33-3.16l-1-.34c0,.24.07.48.11.72l.64.23,8.39,3c1.62.56,2.78.94,3.27,1.06a2.29,2.29,0,0,1,.07.28c-.07.09-.12.15-.11.16s.06,0,.13-.06c.36,1.54.73,3.2,1.09,5,.56,2.8,1.1,5.89,1.53,9.22.06.44.11.9.17,1.35-.39-.24-1.3-.68-2.57-1.27-1.76-.82-4.2-1.9-6.91-3.06l-2-.84c.08.27.16.54.25.8l1.48.64c2.71,1.16,5.18,2.17,7,2.88,1.4.54,2.38.9,2.78,1,.35,2.89.63,6,.76,9.16.13,3,.15,6.05,0,9.23-.37-.3-.92-.7-1.6-1.19l-5.42-3.93-.78-.59.12.9.27.21c2.12,1.56,4.09,2.88,5.55,3.79.79.49,1.42.86,1.85,1.09,0,.77-.06,1.54-.11,2.32-.23,4.09-.78,8.31-1.44,12.62l-.39,2.39c-.81-1.1-2.58-3.28-4.7-5.74l-.76-.88c0,.3,0,.6-.08.9l.35.4c2.24,2.61,4.22,4.79,5.13,5.67-.54,3.35-1.08,6.64-1.6,9.84-.24,1.56-.46,3.09-.66,4.6-.76-.85-2.68-2.76-4.77-5.13l-.35-.4c0,.28-.08.56-.13.84a37.4,37.4,0,0,0,5.21,5c-.32,2.36-.59,4.68-.79,6.93-.25,2.81-.39,5.53-.44,8.12-.24-.26-.55-.6-.9-1-.82-1-2-2.5-3.39-4l-1.23-1.26c0,.3,0,.6,0,.9l.76.81c1.4,1.48,2.6,2.86,3.52,3.85a7.86,7.86,0,0,0,1.25,1.09,79.84,79.84,0,0,0,.63,11.68c.05.36.11.7.16,1.05-.6-.72-2.35-2.49-4.64-4.72.08.36.17.72.26,1.08,2.19,2,3.87,3.5,4.42,3.89a54.58,54.58,0,0,0,3.18,11.85c.32.74.56,1.41.83,2s.49,1,.7,1.4l.36.69.14,0C41.8,404.53,41.69,404.27,41.54,403.93Z" style="fill:#005b7f"/><path d="M11.74,399.57c-.41,4-2.92,33.94,12.76,46.86a5,5,0,0,0,3.2,1.14H51.56a5.08,5.08,0,0,0,3.21-1.14c15.67-12.92,13.17-42.87,12.76-46.86Z" style="fill:#edce4f"/><g style="opacity:0.32;mix-blend-mode:multiply"><path d="M63.06,420.9c-7.14-5.42-19.69-.36-26.26,3.79C29.92,429,25.65,436,20.54,442.13a26.08,26.08,0,0,0,4.1,4.24l0,0c1.22-1.38,2.41-2.83,3.55-4.32,3.74-4.85,7.4-9.53,12.64-12.84a30.77,30.77,0,0,1,9.4-3.76c2.77-.67,7.89-1.74,9.9.95s1.89,6.62,1.92,10.35a48.75,48.75,0,0,0,4-11.94A10.24,10.24,0,0,0,63.06,420.9Z" style="fill:#ffac00"/><path d="M61.19,404.65q-6.24,1.91-12.58,3.47c-12,3-24.07,6.2-35.13,12l-.84.45c3.09-3.37,5.83-7.11,8.51-10.18a101.4,101.4,0,0,1,10.76-10.78H23c-4.05,4-7.78,8.39-11.39,12.73h0a74.24,74.24,0,0,0,2,14.53c2.42-1.39,4.88-2.63,7.23-3.72,10.27-4.77,21.54-7.18,32.45-10,4.18-1.09,9.55-2.12,14.38-4,0-2.61-.06-4.87-.16-6.57A63.41,63.41,0,0,1,61.19,404.65Z" style="fill:#ffac00"/><path d="M49.74,433c-5.89-.15-10.89,3.14-14.92,7.17a29.05,29.05,0,0,0-5.09,7.37h6.9c.2-.32.4-.65.62-1,2.67-3.93,9-9.35,14.06-7.05,2.25,1,3.65,3.27,4.68,5.71a28.3,28.3,0,0,0,4.11-5C58,436.55,54.21,433.15,49.74,433Z" style="fill:#ffac00"/></g><g style="opacity:0.17;mix-blend-mode:multiply"><path d="M52.56,428.33c-4.74-.88-9.64-1.19-14.16-2.87a24.62,24.62,0,0,1-12.27-10c-2.61-4.22-3.88-9.14-4.67-14-.1-.6-.18-1.2-.27-1.81H11.76c-.41,4-2.92,33.94,12.76,46.86a5.05,5.05,0,0,0,3.2,1.14H51.58a5,5,0,0,0,3.18-1.12,32.24,32.24,0,0,0,9.46-14.21A40.29,40.29,0,0,0,52.56,428.33Z" style="fill:#ffac00"/></g><rect x="9.09" y="394.57" width="62" height="11" rx="4.59" style="fill:#f9db5d"/><polygon points="435.07 388.57 443.23 446.57 481.27 446.57 489.44 388.57 435.07 388.57" style="fill:#e3fcfc"/><path d="M481.06,445.11l.77-2.46,1.3-9.26-.3.95-3.11-1.93,1.08-3.5,2.72,1.69.23-1.62-2.49-1.55,1.08-3.5,2,1.21.23-1.62-1.72-1.06,1.08-3.5,1.18.73.22-1.62-.94-.59,1.09-3.5.4.25.22-1.62-.17-.1.34-1.1,1.37-9.71-3-1.89,1.08-3.5,2.51,1.55.23-1.61-2.28-1.42,1.08-3.5,1.74,1.08.22-1.62-1.5-.93.4-1.29h-1.57l-.14.47-.76-.47h-4.37l-.84,2.7-3.11-1.93.23-.77h-4.29l2.29,1.43-1.08,3.5-3.12-1.94.93-3h-1.56l-.68,2.18-3.11-1.93.07-.25h-3.29l1.45.91L464,393l-3.12-1.93.77-2.48h-1.57l-.51,1.66-2.67-1.66h-2.83l.62.39-1.08,3.5-3.12-1.93.61-2h-1.57l-.35,1.14-1.83-1.14h-3.09l-1.05,3.37L440.09,390l.44-1.44H439l-.19.62-1-.62h-2.72v.08l3.24,2-1.08,3.5-1.52-.94.27,1.92.79.49-.49,1.6.62,4.41,2.76,1.72-1.09,3.5-1-.64.27,1.92.31.19-.19.62.48,3.47,1-3.27,3.11,1.93-1.08,3.5-3-1.86.27,1.92,2.27,1.41-1.08,3.51-.55-.34.69,4.91.71-2.29,3.12,1.94-1.09,3.5-2.51-1.56.27,1.92,1.79,1.11-1.13,3.63.49,3.47.29-.93,3.11,1.94-1.08,3.5-1.84-1.15.27,1.93,1.11.69-.7,2.26.35,2.47h1.25l-.67-.41,1.08-3.5,3.12,1.93-.62,2H449l.36-1.17,1.89,1.17h3l1-3.39,3.12,1.93-.46,1.46h1.57l.2-.65,1.05.65h4l1-3.25,3.12,1.93-.42,1.32h1.57l.16-.51.82.51h4.29l.85-2.73,3.12,1.93-.25.8h2.22l.18-1.22Zm1.41-9.28-1.09,3.52-3.13-2,1.09-3.51Zm-37.14-29,3.13,1.94-1.09,3.52-3.13-1.94Zm-4-4.24,1.09-3.52,3.13,1.94-1.09,3.52Zm40,2.75-1.09,3.52-3.13-1.95,1.09-3.51Zm-2.67-3.42,1.09-3.52,3.12,1.94-1.09,3.52Zm1.12,8.42-1.09,3.51-3.13-1.94,1.09-3.51Zm-31.09,2.77,1.09-3.52,3.13,1.94L451.81,415Zm2.67,3.42L450.26,420l-3.12-1.95,1.09-3.51Zm1.32.82,3.13,1.94-1.09,3.52-3.13-2Zm.46-1.48,1.09-3.52,3.13,1.94-1.09,3.52Zm4,4.24,3.12,1.94-1.09,3.52L456,423.6Zm.45-1.48,1.09-3.52,3.13,1.94-1.09,3.52Zm1.55-5,1.09-3.52,3.13,1.94-1.09,3.52Zm4,4.24,3.13,1.94-1.09,3.52L462,421.37Zm.46-1.48,1.09-3.52,3.12,1.94-1.09,3.52Zm4,4.24,3.13,1.94-1.09,3.52-3.13-1.94Zm.46-1.48,1.09-3.52,3.13,1.94-1.09,3.52Zm1.55-5,1.09-3.52,3.13,1.95-1.09,3.51Zm4,4.24,3.12,1.94-1.09,3.52-3.12-1.94Zm.45-1.48,1.09-3.52,3.13,1.95-1.09,3.51Zm1.78-10.81-3.13-1.95,1.09-3.51,3.13,1.94Zm-.46,1.48-1.09,3.51-3.12-1.94,1.09-3.51Zm-4-4.24-3.13-1.95,1.09-3.51,3.13,1.94Zm-.46,1.48-1.09,3.51-3.13-1.94,1.09-3.51Zm-1.55,5-1.09,3.51-3.13-1.94,1.09-3.52Zm-4-4.25-3.12-1.94,1.09-3.51,3.12,1.94Zm-.45,1.49-1.09,3.51-3.13-1.94,1.09-3.52Zm-4-4.25-3.13-1.94,1.09-3.51,3.13,1.94Zm-.46,1.49-1.09,3.51-3.13-1.94,1.09-3.52Zm-1.55,5-1.09,3.52-3.12-1.94,1.09-3.52Zm-4-4.24-3.13-1.94,1.09-3.52,3.13,1.95Zm-.46,1.48L453.36,410l-3.13-1.94,1.09-3.52Zm-4-4.24-3.13-1.94,1.09-3.52,3.13,1.95Zm-.46,1.48-1.09,3.52-3.12-1.94,1.09-3.52Zm-3.09,10-1.09,3.52-3.13-1.95,1.09-3.51Zm-.23,5.82,3.13,1.94L448.72,425l-3.13-1.94Zm1.58,6.94L447.17,430,444,428.08l1.09-3.52Zm-.23,5.81,3.13,1.94-1.21,3.9-3.13-1.94Zm.46-1.48,1.09-3.52,3.12,1.95-1.09,3.51Zm1.54-5,1.09-3.51,3.13,1.94-1.09,3.51Zm4,4.24,3.13,1.95-1.09,3.51-3.13-1.94Zm.46-1.48,1.09-3.51L458.7,427l-1.09,3.51Zm4,4.24,3.12,2-1.09,3.51-3.12-1.94Zm.45-1.48,1.09-3.51,3.13,1.94-1.09,3.51Zm1.55-5,1.09-3.51,3.13,1.94-1.09,3.52Zm4,4.25,3.13,1.94-1.09,3.51-3.13-1.94Zm.46-1.49,1.09-3.51,3.12,1.94L468,431.07Zm4,4.25,3.13,1.94-1.09,3.51-3.13-1.94Zm.46-1.49,1.09-3.51,3.13,1.94-1.09,3.52Zm1.55-5,1.09-3.52,3.13,1.94L474,428.83Zm4,4.24,3.12,1.94-1.09,3.52-3.12-1.95Zm.45-1.48,1.09-3.52,3.13,1.94-1.09,3.52Zm4.68-3.06-3.13-1.94,1.09-3.52,3.13,1.94Zm1.55-5-3.13-1.94,1.09-3.52,3.13,1.95Zm1.54-5L480,414.65l1.09-3.51,3.12,1.94Zm1.55-5-3.13-2,1.09-3.51,3.13,1.94Zm2.64-8.52-1.09,3.52-3.13-1.94,1.09-3.52Zm-4.48-14.7,3.13,1.95-1.09,3.51-3.13-1.94Zm-1.55,5,3.13,1.94-1.09,3.52-3.13-1.94Zm-4.44-2.76,3.13,1.94-1.09,3.52-3.13-1.94Zm-1.55,5,3.13,1.94-1.09,3.52-3.13-1.94Zm-4.44-2.76L474,394.8l-1.09,3.52-3.12-1.94Zm-4.45-2.76,3.13,1.94-1.09,3.52-3.13-1.94Zm-1.55,5L468,397l-1.09,3.52-3.13-1.95Zm-4.44-2.76,3.13,1.94-1.09,3.52-3.13-1.95ZM456,389.58l3.13,1.94L458,395l-3.13-2Zm-1.54,5,3.12,1.94L456.45,400l-3.12-1.94ZM450,391.82l3.13,1.94L452,397.27l-3.13-1.94Zm-4.44-2.76,3.12,1.94-1.09,3.51-3.12-1.94Zm-1.55,5,3.13,1.95L446,399.51l-3.13-1.94Zm-4.45-2.76,3.13,1.95-1.09,3.51-3.13-1.94Zm-2.63,8.52,1.09-3.52,3.12,1.94L440,401.75Zm2.89,7.76,1.09-3.52L444,406l-1.09,3.52Zm1.35,12.75,1.09-3.51,3.13,1.94-1.09,3.51Zm1.24,13.14,1.2-3.9,3.13,1.94-1.21,3.9Zm6,9.7-3.13-1.94,1.09-3.52,3.13,1.94Zm4.45,2.76L449.72,444l1.09-3.52,3.13,1.94Zm1.54-5L451.27,439l1.2-3.9L455.6,437Zm4.45,2.76-3.13-1.94,1.21-3.9,3.13,1.94Zm4.44,2.76-3.12-1.94,1.2-3.9,3.13,1.94Zm1.67-5.38-3.13-1.94,1.09-3.52,3.13,1.95Zm4.44,2.76-3.12-1.94,1.09-3.52,3.12,1.95Zm4.45,2.76-3.13-1.94,1.09-3.52,3.13,1.95Zm1.55-5-3.13-1.94,1.09-3.51,3.13,1.94Zm4.44,2.76-3.13-1.94,1.09-3.51,3.13,1.94Z" style="fill:#0cf;mix-blend-mode:multiply"/><rect x="432.09" y="385.57" width="60" height="4" rx="0.99" style="fill:#0cf"/><rect x="442.09" y="444.57" width="41" height="4" rx="0.99" style="fill:#0cf"/><path d="M380.23,442.57H371a5.86,5.86,0,0,1-5.86-5.85v-6.29a5.87,5.87,0,0,1,5.86-5.86h9.28a5.86,5.86,0,0,1,5.86,5.86v6.28A5.86,5.86,0,0,1,380.23,442.57Zm-12.14-12.12v6.25a2.87,2.87,0,0,0,2.88,2.87h9.25a2.86,2.86,0,0,0,2.87-2.87v-6.25a2.87,2.87,0,0,0-2.87-2.88H371A2.88,2.88,0,0,0,368.09,430.45Z" style="fill:#113f56"/><polygon points="367.36 419.57 364.17 419.57 353.42 419.57 356.06 448.57 364.17 448.57 367.36 448.57 375.47 448.57 378.11 419.57 367.36 419.57" style="fill:#0d334a"/><path d="M102.09,432.57h50.75a5.25,5.25,0,0,1,5.25,5.25v3.5a5.25,5.25,0,0,1-5.25,5.25H102.09a0,0,0,0,1,0,0v-14A0,0,0,0,1,102.09,432.57Z" style="fill:#cdebed"/><g style="mix-blend-mode:multiply"><path d="M155.86,437.74a6.35,6.35,0,0,1,1.27,5.79,7.54,7.54,0,0,0,.54-6.44,7,7,0,0,0-6.62-4.52h-49v2H149.3A8.19,8.19,0,0,1,155.86,437.74Z" style="fill:#cdebed"/></g><path d="M150.16,432.57H101.09v1h52.35a5.89,5.89,0,0,1,5.48,3.5,6,6,0,0,1-5.49,8.5H101.09v2h48.75A7.71,7.71,0,0,0,157.6,441,7.51,7.51,0,0,0,150.16,432.57Z" style="fill:#0d334a"/><path d="M150.16,437.57H105.29c-.17-.23-.32-.38-.32-.56s.15-.32.32-.44h44.87a.58.58,0,0,1,.32.44C150.48,437.19,150.34,437.34,150.16,437.57Z" style="fill:#fff"/><path d="M150.16,440.57H105.29c-.17-.44-.32-.58-.32-.76s.15-.32.32-.24h44.87c.18-.08.32.06.32.24S150.34,440.13,150.16,440.57Z" style="fill:#fff"/><path d="M150.16,442.57H105.29c-.17.36-.32.22-.32,0s.15-.32.32,1h44.87c.18-1.28.32-1.14.32-1S150.34,442.93,150.16,442.57Z" style="fill:#fff"/><path d="M107.09,408.57h38.45a4.55,4.55,0,0,1,4.55,4.55V416a4.55,4.55,0,0,1-4.55,4.55H107.09a0,0,0,0,1,0,0v-12A0,0,0,0,1,107.09,408.57Z" style="fill:#cdebed"/><g style="mix-blend-mode:multiply"><path d="M150.05,416.15a6.16,6.16,0,0,1-.19,1.43,5.84,5.84,0,0,0,.88-3.06,6,6,0,0,0-5.87-5.95H107.09v2h37.1A5.45,5.45,0,0,1,150.05,416.15Z" style="fill:#cdebed"/></g><path d="M143.62,407.57H106.09v2h38.27a5.14,5.14,0,0,1,5.12,4,5,5,0,0,1-4.9,6H106.09v1h37.25a6.69,6.69,0,0,0,6.73-5.69A6.51,6.51,0,0,0,143.62,407.57Z" style="fill:#59afec"/><path d="M143.78,412.57H110c-.15-.2-.28-.33-.28-.48s.13-.28.28-.52h33.77c.15.24.28.36.28.52S143.93,412.37,143.78,412.57Z" style="fill:#fff"/><path d="M143.78,413.57H110c-.15,1.23-.28,1.1-.28.95s.13-.28.28.05h33.77c.15-.33.28-.21.28-.05S143.93,414.8,143.78,413.57Z" style="fill:#fff"/><path d="M143.78,417.57H110c-.15-.35-.28-.47-.28-.63a.49.49,0,0,1,.28-.37h33.77a.49.49,0,0,1,.28.37C144.06,417.1,143.93,417.22,143.78,417.57Z" style="fill:#fff"/><path d="M96.09,421.57h45.24a3.76,3.76,0,0,1,3.76,3.76v2.47a3.76,3.76,0,0,1-3.76,3.76H96.09a0,0,0,0,1,0,0v-10A0,0,0,0,1,96.09,421.57Z" style="fill:#cdebed"/><g style="mix-blend-mode:multiply"><path d="M144.61,428.12a5.09,5.09,0,0,1-.16,1.18,4.85,4.85,0,0,0,.73-2.53c0-2.68-2.17-4.85-4.85-4.2H96.09v1h43.67A4.43,4.43,0,0,1,144.61,428.12Z" style="fill:#cdebed"/></g><path d="M140,421.57H95.09v1h43.36a4.15,4.15,0,0,1,4.2,3.64,4,4,0,0,1-4,4.36H95.09v2h44.65a5.68,5.68,0,0,0,5.76-5A5.5,5.5,0,0,0,140,421.57Z" style="fill:#f0c40c"/><path d="M139.42,424.57H98.25c-.13.43-.24.32-.24.19s.11-.23.24.81h41.17c.13-1,.23-.93.23-.81S139.55,425,139.42,424.57Z" style="fill:#fff"/><path d="M139.42,426.57H98.25c-.13.43-.24.33-.24.2s.11-.23.24.8h41.17c.13-1,.23-.93.23-.8S139.55,427,139.42,426.57Z" style="fill:#fff"/><path d="M139.42,428.57H98.25c-.13.44-.24.33-.24.2s.11-.23.24.8h41.17c.13-1,.23-.92.23-.8S139.55,429,139.42,428.57Z" style="fill:#fff"/><rect x="398.09" y="399.57" width="4" height="33" style="fill:#9bced3"/><rect x="398.09" y="403.57" width="4" height="32" style="fill:#9b88fe"/><rect x="398.09" y="402.57" width="4" height="1" style="fill:#cdebed"/><rect x="398.19" y="414.7" width="17.71" height="6.76" transform="translate(-34.36 799.71) rotate(-86.61)" style="fill:#f0c40c"/><path d="M405.33,407.67h4.43a1.36,1.36,0,0,1,1.36,1.36v2.44a0,0,0,0,1,0,0H404a0,0,0,0,1,0,0V409A1.36,1.36,0,0,1,405.33,407.67Z" transform="translate(24.91 -23.36) rotate(3.39)" style="fill:#0d334a"/><path d="M408.25,416.66h0a1.12,1.12,0,0,1-1-1.18l.27-4.64a1.12,1.12,0,0,1,1.18-1h0A1.12,1.12,0,0,1,409.7,411l-.28,4.64A1.12,1.12,0,0,1,408.25,416.66Z" style="fill:#0d334a"/><rect x="392.36" y="411.89" width="5.13" height="13.42" transform="translate(-39.5 41.15) rotate(-5.68)" style="fill:#59afec"/><path d="M392.94,410.73h2.7a1.36,1.36,0,0,1,1.36,1.36v1.52a0,0,0,0,1,0,0h-5.43a0,0,0,0,1,0,0v-1.52a1.36,1.36,0,0,1,1.36-1.36Z" transform="translate(-38.87 41.07) rotate(-5.68)" style="fill:#0d334a"/><path d="M395.65,417.39h0a.86.86,0,0,1-.92-.76l-.35-3.5a.86.86,0,0,1,.76-.93h0a.85.85,0,0,1,.92.76l.35,3.5A.84.84,0,0,1,395.65,417.39Z" style="fill:#0d334a"/><polygon points="389.32 420.57 391.26 447.57 410.37 447.57 412.31 420.57 389.32 420.57" style="fill:#59afec"/><path d="M412.69,423.57H388.26a2,2,0,0,1-2-2h0a2,2,0,0,1,2-2h24.43a2,2,0,0,1,2,2h0A2,2,0,0,1,412.69,423.57Z" style="fill:#0d334a"/><g style="opacity:0.22;mix-blend-mode:multiply"><path d="M391.25,447.57h19.11l0-.56c-3.18-2.1-6.62-3.92-9.38-6.54-4.6-4.35-7-10.63-7.7-16.92-.1-1-.16-2-.19-3h-3.77l0,.11Z" style="fill:#59afec"/></g><path d="M231.56,312.51c-36,30.26-56.35-10.8-48.25-32,0,0,10.5,6,11-1.07s-6.6-2.06-9.63-4.74-1.89-6.34.9-7.26,4.05,0,4.62,3.51c.51,3.16,5.44,3.54,6.53.88s.4-11.4-12.32-11.76c-.36-1.82,3.69-16.93-3.24-16.84-5.52.07-3.35,12.17-3.23,15.56-1.94-5.7-2.19-15.23-8-12.32s3.33,15.73,3.33,15.73-6.23-10.56-10-5.66c-2.7,3.53.72,6.74,5.6,10.28,3.77,2.74,1.53,10.72,1,13.69-1.82,9.53-7.34,47.09,21.92,59.07,15.26,6.26,31.11,1.09,31.11,1.09Z" style="fill:#ffc9ae"/><path d="M231.56,312.51l-8.71,28.15s-15.84,5.16-31.1-1.1c-24.14-9.89-24.61-37.19-23-51.79-.23,15,3.46,35.28,23.55,43.5,15.25,6.26,31.1,1.1,31.1,1.1l5.48-17.71C229.75,314,230.65,313.28,231.56,312.51Z" style="fill:#ffb890"/><path d="M284.2,312.51c36,30.26,56.35-10.8,48.25-32,0,0-10.5,6-11-1.07s6.61-2.06,9.63-4.74,1.89-6.34-.89-7.26-4,0-4.62,3.51c-.52,3.16-5.44,3.54-6.53.88s-.4-11.4,12.31-11.76c.37-1.82-3.68-16.93,3.24-16.84,5.53.07,3.36,12.17,3.24,15.56,1.94-5.7,2.19-15.23,8-12.32s-3.33,15.73-3.33,15.73,6.24-10.56,10-5.66c2.7,3.53-.72,6.74-5.59,10.28-3.78,2.74-1.54,10.72-1,13.69,1.82,9.53,7.33,47.09-21.93,59.07-15.26,6.26-31.1,1.09-31.1,1.09Z" style="fill:#ffc9ae"/><path d="M284.23,312.51l8.71,28.15s15.84,5.16,31.1-1.1c24.15-9.89,24.61-37.19,23-51.79.24,15-3.45,35.28-23.54,43.5-15.26,6.26-31.11,1.1-31.11,1.1l-5.47-17.71C286.05,314,285.14,313.28,284.23,312.51Z" style="fill:#ffb890"/><path d="M301.79,318.83c-4.22-.57-15.76-5.65-20.12-8.31-10.74-8.49-35.75-9-46.68-.8-1,.76-17.11,9.54-21.4,9.11-3.49-.35-4.56,28.68,0,29.95a43.81,43.81,0,0,0,4.57,1c-.6,19-1.12,48.47,2.27,52.28,4.12,4.61,70.71,4.61,74.82,0,3.41-3.82,2.75-33.34,2.1-52.3a45.14,45.14,0,0,0,4.44-1C306.35,347.51,305.27,319.3,301.79,318.83Z" style="fill:#363636"/><path d="M265.72,298.57H250c0,9.63-.88,14.45,7.88,14.45S265.72,308.2,265.72,298.57Z" style="fill:#ffb890"/><path d="M344.58,414.19c-3.74-15.34-29.08-19.87-42.71-19.62H216c-13.63-.25-39,4.28-42.71,19.62-3.7,15.17.65,44.12,85.63,27.72C343.93,458.31,348.28,429.36,344.58,414.19Z" style="fill:#073d4c"/><path d="M344.58,414.34c4.36,15.53-.73,45.15-88.47,27.39,0,0,2.6-16.74-1.4-28.16C305.72,395.24,341.1,402,344.58,414.34Z" style="fill:#074559"/><path d="M256.11,441.73s.28-1.77.51-4.56c78.77,15.6,89.76-7.54,87.77-23.43.07.2.14.4.19.59C349,429.87,343.85,459.49,256.11,441.73Z" style="fill:#073d4c"/><path d="M291.07,447.16a48.09,48.09,0,0,1-9-.2c-12.74-1.24-28.89-5.64-28.89-5.64l8.9-23.52s12.3-.53,22.21-.45c4.92,0,9.25.24,11.2.72C304.07,420.2,304.37,445.87,291.07,447.16Z" style="fill:#ffbe13"/><path d="M261.9,424.27c.33,0,19.92.65,19.34.93s-1.32,12.45-1.32,12.45-19.84-2.78-19.63-3.09S261.9,424.27,261.9,424.27Z" style="fill:#919191"/><path d="M291.07,447.16a48.09,48.09,0,0,1-9-.2c-2.68-3.93-4.05-9.68-3.39-15.88a24.93,24.93,0,0,1,5.61-13.73c4.92,0,9.25.24,11.2.72C304.07,420.2,304.37,445.87,291.07,447.16Z" style="fill:#fff"/><path d="M291.07,447.16a37,37,0,0,1-5.12.09l1-.08c13.3-1.29,13-27,4.41-29.09a34.68,34.68,0,0,0-7.08-.73c3.94,0,8.61.08,11.2.72C304.07,420.2,304.37,445.87,291.07,447.16Z" style="fill:#d1d1d1"/><path d="M277.84,440a1.22,1.22,0,0,1-1.17-.89c-1-3.58-.42-8.09.33-11.42a17.35,17.35,0,0,0-2.36,10,1.22,1.22,0,1,1-2.43.29c-.79-6.64,3.6-15.23,7.06-15.81a1.2,1.2,0,0,1,1.14.42,1.22,1.22,0,0,1,.22,1.2c0,.09-3.2,9-1.61,14.61a1.21,1.21,0,0,1-.84,1.51A1,1,0,0,1,277.84,440Z" style="fill:#d1d1d1"/><path d="M268.46,438.61a1.21,1.21,0,0,1-1.21-1.08c-.79-6.64,3.6-15.22,7.06-15.81a1.23,1.23,0,0,1,.41,2.42c-1.45.24-5.77,6.91-5,13.1a1.21,1.21,0,0,1-1.07,1.36Z" style="fill:#d1d1d1"/><path d="M263.5,438.09a1.22,1.22,0,0,1-1.21-1.08c-.79-6.65,3.6-15.23,7.06-15.81a1.22,1.22,0,0,1,.41,2.41c-1.45.25-5.77,6.92-5,13.11a1.22,1.22,0,0,1-1.07,1.36Z" style="fill:#d1d1d1"/><path d="M277.89,439.61a1.16,1.16,0,0,1-.45-.08c-3.26-1.3-5.75-10.61-3.59-16.94a1.23,1.23,0,1,1,2.32.79c-2,5.9.81,13.33,2.17,13.87a1.22,1.22,0,0,1-.45,2.36Z" style="fill:#fff"/><path d="M272.93,439.09a1.17,1.17,0,0,1-.45-.09c-3.26-1.3-5.75-10.61-3.59-16.94a1.23,1.23,0,0,1,2.32.79c-2,5.9.81,13.33,2.17,13.87a1.24,1.24,0,0,1,.69,1.6A1.22,1.22,0,0,1,272.93,439.09Z" style="fill:#fff"/><path d="M268,438.56a1.25,1.25,0,0,1-.46-.09c-3.25-1.3-5.74-10.61-3.58-16.94a1.23,1.23,0,0,1,2.32.8c-2,5.9.81,13.32,2.17,13.87a1.22,1.22,0,0,1-.45,2.36Z" style="fill:#fff"/><path d="M299.11,405.52c-4.15,3.38-77.92,3.89-82.63,0s-10-62.69-7.2-65.51,93.12-2.57,97,0S303.26,402.14,299.11,405.52Z" style="fill:#c9c9c9"/><path d="M302.62,393.8c-1.2,6.32-2.44,10.85-3.5,11.72-4.15,3.38-77.93,3.89-82.64,0s-10-62.69-7.2-65.52c.39-.38,4.57,38.24,16.65,48.69C247.08,407,287.72,402.47,302.62,393.8Z" style="fill:#c9c9c9;opacity:0.21;mix-blend-mode:multiply"/><circle cx="257.98" cy="373.12" r="12.09" style="fill:#fff"/><path d="M256.42,359s-4.65-7.67-7.14-2.67C248,359,256.42,359,256.42,359Z" style="fill:#fff"/><path d="M259,359s4.66-7.67,7.14-2.67C267.42,359,259,359,259,359Z" style="fill:#fff"/><path d="M202.16,401.43c19,1.22,49.81,11.65,62,14.82-1.82,2.87-4.59,25.76-3.36,26.94-88.49,17.95-91.2-14.4-87.43-29.22C174.51,409.3,182.17,400.15,202.16,401.43Z" style="fill:#0c5870"/><path d="M261.09,443.19c-82.22,16.67-90.38-10.07-88.1-25.84,2.36,15,19.31,31.43,88.1,17.48Z" style="fill:#074559"/><path d="M296.52,261.08a1.5,1.5,0,0,1-.4.19,18.19,18.19,0,0,1-3.58.48c-.4,0-.83.05-1.29.06h-.2l-1,0c-.27,0-.56,0-.85,0l-1.51,0c-15,.29-44.94-.93-59.09-1.56l-.76,0-2.07-.09-1,0-3.94-.19a13.67,13.67,0,0,1-1.32-1.69c-2.79-3.95-6-10.95-4.15-12.4,2.16-1.69,5.4-.41,5.47-1.4s-5.11-8.59-3-11,2.1-.28,3-1.13c.53-.49-1-4.05-1.28-7.66,0-.49-.06-1-.06-1.46,0-2.09.61-4,2.39-5.24a10.7,10.7,0,0,0,2.39-2c1.39-1.75-.3-2.3,2-3.59,3.05-1.69,7,.84,7,.84s5.49-10.28,8.31-10.7,2.53,3.8,4.94,3.23,5.91-5.49,8.87-6.47c4.27-1.43-1.21,4.5.84,4.5s6.62-5.63,13.24-6.61c2.25,2-1,5.21,4.22,6.05s2.82,5.35,6.2,6.9,3,.43,6.34,1.56,2.15,2.24,3.11,5.91.13,4.36,3.72,6.34,7.36,3.52,5.47,7.88-2.19,7.47,0,6.62,2.63-1,2.06,1.55-4.78,8.45-1.26,8.45S299.72,258.56,296.52,261.08Z" style="fill:#b64401"/><path d="M296.52,261.08a1.5,1.5,0,0,1-.4.19,18.19,18.19,0,0,1-3.58.48c-.4,0-.83.05-1.29.06h-.2l-1,0c-.27,0-.56,0-.85,0l-1.51,0c-15,.29-44.94-.93-59.09-1.56l-.76,0-2.07-.09-1,0-3.94-.19a13.67,13.67,0,0,1-1.32-1.69c-2.79-3.95-6-10.95-4.15-12.4,2.16-1.69,5.4-.41,5.47-1.4s-5.11-8.59-3-11,2.1-.28,3-1.13c.53-.49-1-4.05-1.28-7.66,0-.49-.06-1-.06-1.46,0-2.09.61-4,2.39-5.24a10.7,10.7,0,0,0,2.39-2c1.39-1.75-.3-2.3,2-3.59,3.05-1.69,7,.84,7,.84s5.49-10.28,8.31-10.7,2.53,3.8,4.94,3.23,5.91-5.49,8.87-6.47c4.27-1.43-1.21,4.5.84,4.5s6.62-5.63,13.24-6.61c2.25,2-1,5.21,4.22,6.05s2.82,5.35,6.2,6.9,3,.43,6.34,1.56,2.15,2.24,3.11,5.91.13,4.36,3.72,6.34,7.36,3.52,5.47,7.88-2.19,7.47,0,6.62,2.63-1,2.06,1.55-4.78,8.45-1.26,8.45S299.72,258.56,296.52,261.08Z" style="fill:#b64401"/><path d="M293.44,259.42c0,.26,0,.52,0,.78a1.94,1.94,0,0,1-1.31,1.73,2.11,2.11,0,0,1-1.29.06h-.07l-.12,0a2.16,2.16,0,0,1-1,0,1.9,1.9,0,0,1-.84-.36,1.75,1.75,0,0,1-.57-.78,2,2,0,0,1-.1-.75,31.15,31.15,0,0,0-.89-9.12,1.86,1.86,0,0,1,1.6-2.35h0c-.16-.67-.34-1.33-.54-2h0a24.7,24.7,0,0,0-1.23-3.19c-.06-.12-.12-.25-.19-.37l-.19-.36,0,0c0-.09-.1-.19-.15-.28a4.15,4.15,0,0,0-.32-.53,14.39,14.39,0,0,0-1.45-2,1.83,1.83,0,0,0-.13-.16c-2.7-3.08-6.45-5-10.4-6.61-9.49-3.76-20.52-3.48-30.46-1.16a2.61,2.61,0,0,1-2,3.27c-5,1.68-8.91,4.36-13.08,7.3h0l-1.65,1.17a28.53,28.53,0,0,1-.48,5.27,2.4,2.4,0,0,1-.11.48,25.92,25.92,0,0,1,1.51,4.94l.06.07a4.14,4.14,0,0,1,.18,5.19h0a4.91,4.91,0,0,1-.71.81s0,0-.06.07a5.28,5.28,0,0,1-1,1.33,5.79,5.79,0,0,1-1.82,1.15,5.58,5.58,0,0,1-.58.18l-.33.09a6.26,6.26,0,0,1-4.32-.6,10.85,10.85,0,0,1-2.33-1.79,5.63,5.63,0,0,1,1.47-1.94,5.4,5.4,0,0,1,.71-.5c-2.79-3.95-6-10.95-4.15-12.4,2.16-1.69,5.41-.41,5.47-1.4s-5.11-8.6-3-11,2.1-.28,3-1.13c.53-.49-1-4.06-1.27-7.66h0c-.06-.49-.11-1-.12-1.45,0-2.09.61-4,2.39-5.24a10.7,10.7,0,0,0,2.39-2,.6.6,0,0,1,.45.75c-1,2.88-2.12,5.08-1,8.12a30.14,30.14,0,0,1,2.18-2.2,1.84,1.84,0,0,1,2.84,2.28,7.58,7.58,0,0,1,1.77.27c1.25-2.86,2.67-5.56,5.81-6.92,1.18-.5,2.78.34,2.33,1.8-.11.36-.24.78-.37,1.23.29-.51.53-.91.67-1.11a4.05,4.05,0,0,1,4.79-1.25c1.66-1.6,3.35-3.16,5.08-4.64,2.88-2.47,5.61-4.14,9.45-3.58,2.42.35,2.54,3.95.66,5-.62.39-1.23.82-1.82,1.24a16.25,16.25,0,0,0-1.82,1.71v0c-.15.22-1.39,1.76-2.19,2.65l.1.18a32.05,32.05,0,0,0,6.44-2.27,23,23,0,0,1,8.59-2,3.22,3.22,0,0,1,3.09,3.76c2.89.11,5.78.13,8.69,0a1.73,1.73,0,0,1,1.64,2.14,7.67,7.67,0,0,1-.49,1.79c.79-.1,1.58-.16,2.37-.19a.8.8,0,0,1,.22,1.57c-1.63.55-3.3.94-4.95,1.42a1.25,1.25,0,0,1-1.43-1.72,12.8,12.8,0,0,1-3.63.69,35.66,35.66,0,0,1,5.31,2.08C289.69,234.5,293.75,247.91,293.44,259.42Z" style="fill:#b64401;opacity:0.31;mix-blend-mode:multiply"/><path d="M227.16,278.46l-.48,0c-10-.56-12.09-12.22-9.37-17.68a5.89,5.89,0,0,1,1.47-1.94,6.24,6.24,0,0,1,.72-.5c2.14-1.29,3.95-.4,5.24.8a10.19,10.19,0,0,1,1,1.12,10.58,10.58,0,0,1,1,1.49l.12.22Z" style="fill:#ffb890"/><path d="M222.5,268q0-.31.12-.63a12.62,12.62,0,0,1,1.87-3.83c.19-.27-.17-.61-.44-.45-2.49,1.5-4.66,4.72-3.62,7.73.8,2.31,4.59,3.83,5.81,1.05C227.2,269.67,224.89,266.52,222.5,268Z" style="fill:#f29b62"/><path d="M287.58,279.57h-.06l-.43,0V279l.33-15.94a10.56,10.56,0,0,1,2.27-3,4.06,4.06,0,0,1,5.77-.14,5.11,5.11,0,0,1,1.12,1.3C299.81,266.38,298,279,287.58,279.57Z" style="fill:#ffb890"/><path d="M291.28,269.15a4.52,4.52,0,0,0-.12-.64,12.62,12.62,0,0,0-1.87-3.83c-.19-.27.17-.61.44-.45,2.49,1.5,4.66,4.72,3.62,7.73-.8,2.31-4.59,3.83-5.81,1.05C286.58,270.82,288.89,267.66,291.28,269.15Z" style="fill:#f29b62"/><path d="M289.35,251.58c0,3,0,5.82-.12,8.53,0,.6,0,1.2-.06,1.78-.1,2.57-.26,5-.48,7.32-.15,1.61-.33,3.17-.56,4.67-.29,2-.64,3.86-1.07,5.63a.17.17,0,0,1,0,.07,30.1,30.1,0,0,1-5.9,12.61c-4.84,5.73-12.41,8.6-24.15,8.6-11.91,0-19.54-3-24.38-8.86a28.91,28.91,0,0,1-5.17-10.45c-.28-1-.54-2-.77-3-.4-1.82-.72-3.74-1-5.76-.2-1.45-.36-3-.49-4.52q-.32-3.77-.45-8c0-.36,0-.72,0-1.08-.07-2.4-.1-4.92-.1-7.54C224.64,221.58,289.35,221.58,289.35,251.58Z" style="fill:#ffc9ae"/><path d="M282.1,291c-.3.41-.62.81-1,1.19-4.84,5.73-12.41,8.6-24.15,8.6-11.91,0-19.54-3-24.38-8.86a28.91,28.91,0,0,1-5.17-10.45c-.28-1-.54-2-.77-3-.4-1.82-.72-3.74-1-5.76-.2-1.45-.36-3-.49-4.52q-.32-3.77-.45-8c0-.36,0-.72,0-1.08-.07-2.4-.1-4.92-.1-7.54a18.6,18.6,0,0,1,7.11-14.71,18.11,18.11,0,0,0-3.48,10.87c0,2.62,0,5.14.1,7.55,0,.36,0,.71,0,1.07q.13,4.2.45,8c.13,1.56.29,3.07.48,4.52q.39,3,1,5.76c.23,1,.49,2.06.77,3a28.91,28.91,0,0,0,5.17,10.45c4.84,5.91,12.47,8.86,24.38,8.86C270.39,297,277.27,295,282.1,291Z" style="fill:#ffb890"/><path d="M241.24,274.06c-3.7,0-7.44-2.91-7.44-8.47a1.23,1.23,0,0,1,2.45,0c0,4.14,2.59,6,5,6s5-1.88,5-6a1.23,1.23,0,0,1,2.45,0C248.67,271.15,244.93,274.06,241.24,274.06Z" style="fill:#b64401"/><path d="M274,274.06c-3.69,0-7.43-2.91-7.43-8.47a1.23,1.23,0,0,1,2.45,0c0,4.14,2.58,6,5,6s5-1.88,5-6a1.23,1.23,0,0,1,2.45,0C281.46,271.15,277.72,274.06,274,274.06Z" style="fill:#b64401"/><path d="M244.5,249.54a1.22,1.22,0,0,1-1-.57c-.82-1.3-1.61-2-2.22-2s-1.41.71-2.22,2a1.23,1.23,0,0,1-1.69.38,1.21,1.21,0,0,1-.38-1.69c1.33-2.12,2.74-3.15,4.29-3.15s2.95,1,4.29,3.15a1.23,1.23,0,0,1-.38,1.69A1.2,1.2,0,0,1,244.5,249.54Z" style="fill:#b64401"/><path d="M277.28,249.54a1.21,1.21,0,0,1-1-.57c-.82-1.3-1.61-2-2.23-2s-1.4.71-2.22,2a1.22,1.22,0,1,1-2.07-1.31c1.34-2.12,2.75-3.15,4.29-3.15s3,1,4.3,3.15a1.23,1.23,0,0,1-1,1.88Z" style="fill:#b64401"/><path d="M258.09,289.6h0a2,2,0,0,1-2-2v-3a2,2,0,0,1,2-2h0a2,2,0,0,1,2,2v3A2,2,0,0,1,258.09,289.6Z" style="fill:#b64401"/><g style="opacity:0.68"><path d="M242.39,284.42a7.76,7.76,0,0,1-7.76,7.77,7.91,7.91,0,0,1-2-.26,28.91,28.91,0,0,1-5.17-10.45,7.76,7.76,0,0,1,14.94,2.94Z" style="fill:#f29d86"/><path d="M287.12,280h-.07c-1.25,5.14-3.13,9.35-5.9,12.61h-.09a7.7,7.7,0,0,1-7.36-5.19,7.79,7.79,0,0,1,7.36-10.33,7.71,7.71,0,0,1,5.57,2.36,4.87,4.87,0,0,1,.43.49Z" style="fill:#f29d86"/></g></g></g></svg>