<?xml version="1.0" encoding="utf-8"?>
<!-- Generator: Adobe Illustrator 24.0.3, SVG Export Plug-In . SVG Version: 6.00 Build 0)  -->
<svg version="1.1" id="Layer_1" xmlns="http://www.w3.org/2000/svg" xmlns:xlink="http://www.w3.org/1999/xlink" x="0px" y="0px"
	 viewBox="0 0 361 175" style="enable-background:new 0 0 361 175;" xml:space="preserve">
<title>logoME-black</title>
<g id="point">
	<path d="M10.2,10.7h50.4l38.8,99.4l38-99.4h51.8v153h-43V79.3L117,163.7H82.6L53.2,78.7v85.1h-43V10.7z"/>
	<path d="M293.4,43.5l-55.2,0.4l0.2,25.8l48.8-0.3l0.2,31.5l-49.2,0.3l0.2,28.8l55.8-0.4l0.2,33.5l-98.2,0.6l-1-153.3l98-0.6
		L293.4,43.5z"/>
	<path d="M329,163.7c-15.1,0.1-24.9-9.3-24.9-21.6s9.6-22.1,24.6-22.2c14.9-0.1,24.7,9.6,24.8,21.8S343.9,163.6,329,163.7z"/>
</g>
</svg>
