<svg xmlns="http://www.w3.org/2000/svg" viewBox="0 0 408 210"><title>logoME</title><g id="point"><path d="M32.17,29H82.59l38.84,99.39,38-99.39h51.78V182h-43V97.58L139,182H104.57L75.17,96.93V182h-43Z" style="fill:#0076cc"/><path d="M315.38,61.82l-55.22.36.17,25.76,48.83-.32.21,31.46-49.21.33.19,28.8,55.81-.36.23,33.51-98.23.64-1-153.33,98-.64Z" style="fill:#0076cc"/><path d="M351,182c-15.09.1-24.86-9.32-24.94-21.62s9.57-22.06,24.65-22.16c14.89-.1,24.67,9.55,24.75,21.84S365.93,181.9,351,182Z" style="fill:#0076cc"/></g></svg>