<svg xmlns="http://www.w3.org/2000/svg" viewBox="0 0 500 469.5"><title>Main-Home</title><g style="isolation:isolate"><g id="OBJECTS"><path d="M474.28,460.2H6.89c-3.62,0,0-5.45,8.16-12.18h0c8.12-6.72,17.6-12.16,21.15-12.14l459.61,2.2c3.56,0,1.65,5-4.26,11.08h0C485.63,455.26,477.9,460.2,474.28,460.2Z" style="fill:#00b2db"/><circle cx="256.59" cy="200.8" r="181.5" style="fill:#fff5ec"/><rect x="335.09" y="89.3" width="54" height="7" rx="3.26" style="fill:#fff"/><rect x="335.09" y="103.3" width="54" height="7" rx="3.26" style="fill:#fff"/><rect x="369.09" y="117.3" width="54" height="7" rx="3.26" style="fill:#fff"/><rect x="369.09" y="131.3" width="54" height="7" rx="3.26" style="fill:#fff"/><path d="M98.83,128.3h39.53a2.73,2.73,0,0,1,2.73,2.73v.53a2.74,2.74,0,0,1-2.74,2.74H98.83a2.73,2.73,0,0,1-2.73-2.73V131A2.73,2.73,0,0,1,98.83,128.3Z" style="fill:#fff"/><rect x="96.09" y="140.3" width="45" height="6" rx="2.73" style="fill:#fff"/><path d="M127.83,152.3h39.53a2.74,2.74,0,0,1,2.74,2.74v.53a2.73,2.73,0,0,1-2.73,2.73H127.83a2.74,2.74,0,0,1-2.74-2.74V155A2.73,2.73,0,0,1,127.83,152.3Z" style="fill:#fff"/><path d="M127.83,164.3h39.53a2.74,2.74,0,0,1,2.74,2.74v.53a2.73,2.73,0,0,1-2.73,2.73H127.83a2.74,2.74,0,0,1-2.74-2.74V167A2.73,2.73,0,0,1,127.83,164.3Z" style="fill:#fff"/><path d="M370.83,297.3h39.53a2.73,2.73,0,0,1,2.73,2.73v.53a2.73,2.73,0,0,1-2.73,2.73H370.83a2.74,2.74,0,0,1-2.74-2.74V300A2.73,2.73,0,0,1,370.83,297.3Z" style="fill:#fff"/><path d="M370.83,309.3h39.53a2.73,2.73,0,0,1,2.73,2.73v.53a2.73,2.73,0,0,1-2.73,2.73H370.83a2.74,2.74,0,0,1-2.74-2.74V312A2.74,2.74,0,0,1,370.83,309.3Z" style="fill:#fff"/><rect x="397.09" y="320.3" width="45" height="6" rx="2.73" style="fill:#fff"/><rect x="397.09" y="332.3" width="45" height="6" rx="2.73" style="fill:#fff"/><g style="opacity:0.54"><path d="M172.68,78.34a11.79,11.79,0,0,1-9.62-4.47,17.58,17.58,0,0,1-2.9-14.35c.87-3.78,2.93-6.62,5.79-8h0c12.72-6.12,18.79,2.87,20.8,7,3.6,7.4-2.9,15.75-6,17.67A16.35,16.35,0,0,1,172.68,78.34Zm-5.37-23.92c-2,1-3.44,3-4.1,5.88A14.52,14.52,0,0,0,165.53,72a8.66,8.66,0,0,0,7.16,3.29h.09a13.16,13.16,0,0,0,6.34-1.67,14.29,14.29,0,0,0,4.34-5.48c1-2.12,1.89-5.25.47-8.16-2.43-5-7.29-10.06-16.62-5.57Z" style="fill:#ffbe13"/><path d="M177.43,74.88s1.38,5.17,2.88,5.76c1.66.65,7-3.39,6.32-4.83s-4.16-4.89-4.16-4.89Z" style="fill:#ffbe13"/><path d="M180.05,75a1.58,1.58,0,0,1-1.33-.73l-6.28-9.88a1.56,1.56,0,1,1,2.64-1.68l6.29,9.88a1.57,1.57,0,0,1-.48,2.16A1.52,1.52,0,0,1,180.05,75Z" style="fill:#ffbe13"/><path d="M176.47,60.32a4.33,4.33,0,1,1-6.13,0A4.32,4.32,0,0,1,176.47,60.32Z" style="fill:#ffbe13"/><path d="M315.3,105.77a10.56,10.56,0,0,1-2.66-.35A12.57,12.57,0,0,1,304,96.33a14.53,14.53,0,0,1,2.34-11.9,14,14,0,0,1,10.49-5.88,8.9,8.9,0,0,1,9.18,6.7,7.27,7.27,0,0,1-3.92,8.8,3.75,3.75,0,0,1-1.84.4,4.68,4.68,0,0,1-7.71,3.13c-2-1.89-2-5.43-1-8a6.16,6.16,0,0,1,5.58-4.27h0a1.74,1.74,0,0,1,1.74,1.72,1.63,1.63,0,0,1,0,.38,1.76,1.76,0,0,1,.71.79c.21.48.39.94.56,1.37s.36.91.52,1.23a3.87,3.87,0,0,0,1.95-4.7A5.39,5.39,0,0,0,317.13,82a10.48,10.48,0,0,0-7.94,4.42,11.24,11.24,0,0,0-1.8,9,9.06,9.06,0,0,0,6.14,6.59c2.79.73,5.62-.28,8.19-2.94a1.75,1.75,0,1,1,2.51,2.43A12.5,12.5,0,0,1,315.3,105.77Zm1-16.68a3.48,3.48,0,0,0-1.45,1.82c-.65,1.66-.46,3.57.16,4.16.24.24.7.21,1.35-.07s.67-3.34,0-5.54A2.41,2.41,0,0,1,316.27,89.09Z" style="fill:#ffbe13"/><path d="M395.68,159.54a6.34,6.34,0,0,1-.68-.19c-3.79-1.22-7-5.61-5.85-11.63.91-4.74,3.45-8.51,6.77-10.1a7.56,7.56,0,0,1,7,.16,1.71,1.71,0,1,1-1.62,3,4.1,4.1,0,0,0-3.88-.08c-2.31,1.1-4.19,4-4.89,7.66-.78,4.07,1.19,7,3.55,7.73,2,.65,3.85-.32,4.9-2.59a1.71,1.71,0,1,1,3.1,1.43C402.66,157.94,399.58,160.43,395.68,159.54Z" style="fill:#ffbe13"/><path d="M412.72,136.65l-.94.26-.38.11c-.15-.44-.29-.89-.43-1.33a1.07,1.07,0,0,0-2,.64c.14.42.26.84.38,1.26l-1.71.48c-1.52.42-1.13,3,.48,2.77l1.87-.27c.12.39.25.78.41,1.18a1.14,1.14,0,0,0,1.72.44.59.59,0,0,0,.31-.29,2.35,2.35,0,0,0,.06-1.69l.87-.13C415.83,139.72,415.19,136,412.72,136.65Z" style="fill:#ffbe13"/><path d="M423,134.69l-.94.26-.38.11-.43-1.33a1.07,1.07,0,0,0-2,.64c.14.42.26.84.38,1.27l-1.71.47c-1.51.42-1.13,3,.49,2.77l1.87-.27c.12.39.25.78.41,1.18a1.13,1.13,0,0,0,1.71.44.64.64,0,0,0,.32-.29,2.4,2.4,0,0,0,.05-1.69l.87-.13C426.13,137.76,425.49,134.05,423,134.69Z" style="fill:#ffbe13"/><path d="M355.75,297.46a1.65,1.65,0,0,1-.71-.17,1.53,1.53,0,0,1-.65-2.06l10-19.36a1.53,1.53,0,1,1,2.72,1.4l-10,19.36A1.51,1.51,0,0,1,355.75,297.46Z" style="fill:#ffbe13"/><path d="M350.41,293.45a1.52,1.52,0,0,1-1.36-.82l-5.67-10.84a1.53,1.53,0,0,1,.57-2l10.68-6.34a1.53,1.53,0,1,1,1.56,2.63l-9.43,5.6,5,9.57a1.53,1.53,0,0,1-.65,2.06A1.45,1.45,0,0,1,350.41,293.45Z" style="fill:#ffbe13"/><path d="M364.26,298.8a1.53,1.53,0,0,1-.59-2.94l11-4.62-4-11.32a1.53,1.53,0,0,1,2.88-1l4.51,12.68a1.52,1.52,0,0,1-.85,1.92l-12.35,5.18A1.52,1.52,0,0,1,364.26,298.8Z" style="fill:#ffbe13"/><path d="M125.59,243.59a23.76,23.76,0,0,0-3.57-4.83l-3.26,2.91a10.8,10.8,0,0,0-5.94-1.61,22.74,22.74,0,0,0-.58-4.26,10.52,10.52,0,0,0-6.91,2.51,11,11,0,0,0,1.8,2.95l.35.41-.24.15c-3,2-4.55,4.08-5.16,6.12-.92-.16-1.85-.33-2.77-.47a1.3,1.3,0,0,0-.65,0,.92.92,0,0,0-.45.46,3.28,3.28,0,0,0,0,2.19c.23,1,.45,2.06.68,3.09.12.55.32,1.19.86,1.35a1.68,1.68,0,0,0,1.17-.28c.44-.24.9-.45,1.35-.66a16.05,16.05,0,0,0,.72,1.9,11.74,11.74,0,0,0,3.89,4.75l-2.33,1.93,1.67.87C108,264,110,265,112,265a19,19,0,0,0,.83-3.13,10.78,10.78,0,0,0,3.39-1,9.18,9.18,0,0,0,3.81-3.22,10.78,10.78,0,0,1,2,1.52c.07.07.16.16.27.14s.14-.11.19-.18l1.33-2.22a12,12,0,0,0,1.49-3.61c-1.1-.28-2.12-.66-3.22-1a17.36,17.36,0,0,0-.17-6.27,17,17,0,0,0,3.61-2,.38.38,0,0,0,.14-.14A.39.39,0,0,0,125.59,243.59Zm-11.73,11.73A4.27,4.27,0,0,1,108,253c-.66-1.51-1.31-3.95,1.88-6,2.62-1.69,5.54-.28,6.2,1.13S117,253.91,113.86,255.32Z" style="fill:#ffbe13"/><path d="M144.06,251.43a11.74,11.74,0,0,0-1.84-2.48l-1.67,1.5a5.51,5.51,0,0,0-3.06-.83,11.43,11.43,0,0,0-.3-2.19,5.35,5.35,0,0,0-3.55,1.29,5.82,5.82,0,0,0,.92,1.51l.19.21-.13.08a5.9,5.9,0,0,0-2.66,3.15c-.47-.08-.94-.17-1.42-.24a.53.53,0,0,0-.33,0,.43.43,0,0,0-.23.23,1.68,1.68,0,0,0,0,1.13l.35,1.59c.06.28.17.61.44.69a.81.81,0,0,0,.6-.15c.23-.12.47-.22.7-.33a9,9,0,0,0,.37,1,6,6,0,0,0,2,2.45l-1.2,1,.86.45a6.44,6.44,0,0,0,3,1,8.86,8.86,0,0,0,.42-1.61,5.46,5.46,0,0,0,1.75-.49,4.77,4.77,0,0,0,2-1.65,5.14,5.14,0,0,1,1,.78s.09.08.14.07.07-.06.1-.1l.68-1.13a6.31,6.31,0,0,0,.77-1.86c-.56-.15-1.09-.34-1.66-.53a8.94,8.94,0,0,0-.08-3.22,8.94,8.94,0,0,0,1.86-1s.05,0,.06-.07A.17.17,0,0,0,144.06,251.43Zm-6,6a2.19,2.19,0,0,1-3-1.21,2.21,2.21,0,0,1,1-3.09,2.29,2.29,0,0,1,3.19.58C139.52,254.47,139.62,256.74,138,257.47Z" style="fill:#ffbe13"/><path d="M429.92,200.23a23.43,23.43,0,0,0-3.57-4.82l-3.26,2.91a10.83,10.83,0,0,0-5.94-1.62,22.74,22.74,0,0,0-.58-4.26,10.46,10.46,0,0,0-6.91,2.52,11.12,11.12,0,0,0,1.8,2.94l.35.41-.24.15c-3,2-4.55,4.08-5.16,6.13l-2.77-.48a1.3,1.3,0,0,0-.65,0,.94.94,0,0,0-.45.45,3.31,3.31,0,0,0,0,2.2c.23,1,.45,2.06.68,3.09.12.54.32,1.18.86,1.34a1.68,1.68,0,0,0,1.17-.28c.44-.23.9-.44,1.35-.66a15.41,15.41,0,0,0,.72,1.9,11.74,11.74,0,0,0,3.89,4.75l-2.33,1.94,1.67.86c1.83.95,3.76,1.93,5.83,1.9a18,18,0,0,0,.82-3.13,10.84,10.84,0,0,0,3.4-1,9.15,9.15,0,0,0,3.81-3.21,10.73,10.73,0,0,1,2,1.51.31.31,0,0,0,.27.14.37.37,0,0,0,.19-.18l1.33-2.22a12.08,12.08,0,0,0,1.49-3.6c-1.1-.29-2.12-.66-3.22-1a17.38,17.38,0,0,0-.17-6.27,17,17,0,0,0,3.61-2,.29.29,0,0,0,.13-.14A.34.34,0,0,0,429.92,200.23ZM418.19,212a4.27,4.27,0,0,1-5.83-2.35c-.66-1.51-1.31-4,1.88-6,2.61-1.7,5.54-.29,6.2,1.12S421.29,210.56,418.19,212Z" style="fill:#ffbe13"/><path d="M448.39,208.08a11.8,11.8,0,0,0-1.84-2.49l-1.67,1.5a5.6,5.6,0,0,0-3.06-.83,11.54,11.54,0,0,0-.3-2.19,5.35,5.35,0,0,0-3.55,1.29,5.56,5.56,0,0,0,.92,1.51l.19.22-.13.07a5.9,5.9,0,0,0-2.66,3.15l-1.42-.24a.61.61,0,0,0-.33,0,.43.43,0,0,0-.23.23,1.68,1.68,0,0,0,0,1.13l.35,1.59c.06.28.17.61.44.69a.88.88,0,0,0,.6-.14l.7-.34a10.06,10.06,0,0,0,.37,1,6,6,0,0,0,2,2.44l-1.2,1,.86.45a6.57,6.57,0,0,0,3,1,9.31,9.31,0,0,0,.42-1.61,5.76,5.76,0,0,0,1.75-.5,4.7,4.7,0,0,0,2-1.65,5.14,5.14,0,0,1,1,.78s.09.08.14.07.07,0,.1-.09c.23-.38.46-.76.68-1.14a6.31,6.31,0,0,0,.77-1.86c-.57-.15-1.09-.34-1.66-.53a8.94,8.94,0,0,0-.08-3.22,8.87,8.87,0,0,0,1.85-1,.12.12,0,0,0,.07-.07A.17.17,0,0,0,448.39,208.08Zm-6,6a2.18,2.18,0,0,1-3-1.21,2.21,2.21,0,0,1,1-3.09,2.28,2.28,0,0,1,3.18.58C443.85,211.11,444,213.39,442.35,214.11Z" style="fill:#ffbe13"/><path d="M98,189.11l-.55,0c-3.15-.28-6.42-3.1-6.58-8-.13-3.83,1.16-7.19,3.45-9A6,6,0,0,1,99.72,171a1.36,1.36,0,0,1-.71,2.62,3.24,3.24,0,0,0-3,.62c-1.59,1.25-2.52,3.85-2.42,6.78.11,3.28,2.15,5.17,4.1,5.34,1.67.14,2.92-.93,3.33-2.87a1.34,1.34,0,0,1,1.6-1,1.36,1.36,0,0,1,1.05,1.6C103.1,186.65,101.16,189.11,98,189.11Z" style="fill:#ffbe13"/><path d="M107.46,171.52a2,2,0,0,0-2.4,2.36,2.13,2.13,0,0,0,3,1.35,1.67,1.67,0,0,0,.5-.42,1.52,1.52,0,0,0,.56-.77A2.1,2.1,0,0,0,107.46,171.52Z" style="fill:#ffbe13"/><polygon points="108.93 180.23 108.93 180.22 108.93 180.22 108.93 180.23" style="fill:#ffbe13"/><path d="M110.89,180.28a1.46,1.46,0,0,0-.34-.55,1.88,1.88,0,0,0-3.3-.24,2.09,2.09,0,0,0-.12,1.9,2,2,0,0,0,2.14,1.17A2,2,0,0,0,110.89,180.28Z" style="fill:#ffbe13"/><path d="M116.36,184.57a1.35,1.35,0,0,1-1.34-1.23l-1.73-18.73a1.36,1.36,0,1,1,2.7-.25l1.72,18.73a1.35,1.35,0,0,1-1.22,1.47Z" style="fill:#ffbe13"/></g><path d="M115.18,234.3a2.56,2.56,0,0,1-1.9-4.26,2,2,0,0,1,1.6-.74h.42a2.27,2.27,0,0,1,2,1.1A2.54,2.54,0,0,1,115.18,234.3Z" style="fill:#d2d2d2"/><path d="M174.16,234.3a2.54,2.54,0,0,1-2-4.12,2.06,2.06,0,0,1,1.71-.88h.41a2.27,2.27,0,0,1,2,1.1A2.54,2.54,0,0,1,174.16,234.3Zm-9.83,0a2.54,2.54,0,0,1-2-4.11,2.11,2.11,0,0,1,1.73-.89h.39a2.29,2.29,0,0,1,2,1.11A2.53,2.53,0,0,1,164.33,234.3Zm-9.83,0a2.54,2.54,0,0,1-2-4.1,2.13,2.13,0,0,1,1.76-.9h.36a2.31,2.31,0,0,1,2,1.12A2.54,2.54,0,0,1,154.5,234.3Zm-9.83,0a2.55,2.55,0,0,1-2-4.12,2.09,2.09,0,0,1,1.72-.88h.4a2.28,2.28,0,0,1,2,1.1A2.54,2.54,0,0,1,144.67,234.3Zm-9.83,0a2.54,2.54,0,0,1-2-4.1,2.13,2.13,0,0,1,1.76-.9h.36a2.31,2.31,0,0,1,2,1.12A2.54,2.54,0,0,1,134.84,234.3Zm-9.83,0a2.54,2.54,0,0,1-2-4.11,2.11,2.11,0,0,1,1.73-.89h.38a2.3,2.3,0,0,1,2,1.11A2.54,2.54,0,0,1,125,234.3Z" style="fill:#d2d2d2"/><path d="M183.94,234.3a2.56,2.56,0,0,1-1.88-4.27,1.94,1.94,0,0,1,1.56-.73h.45a2.27,2.27,0,0,1,2,1.09A2.54,2.54,0,0,1,183.94,234.3Z" style="fill:#d2d2d2"/><path d="M403.69,66.3a2.56,2.56,0,0,1-1.9-4.26,2,2,0,0,1,1.6-.74h.42a2.27,2.27,0,0,1,2,1.1A2.54,2.54,0,0,1,403.69,66.3Z" style="fill:#d2d2d2"/><path d="M462.67,66.3a2.54,2.54,0,0,1-2-4.1,2.13,2.13,0,0,1,1.76-.9h.36a2.31,2.31,0,0,1,2,1.12A2.54,2.54,0,0,1,462.67,66.3Zm-9.83,0a2.54,2.54,0,0,1-2-4.12,2.06,2.06,0,0,1,1.71-.88H453a2.27,2.27,0,0,1,2,1.1A2.54,2.54,0,0,1,452.84,66.3Zm-9.83,0a2.54,2.54,0,0,1-2-4.11,2.12,2.12,0,0,1,1.73-.89h.39a2.29,2.29,0,0,1,2,1.11A2.53,2.53,0,0,1,443,66.3Zm-9.83,0a2.54,2.54,0,0,1-2-4.1,2.13,2.13,0,0,1,1.76-.9h.36a2.31,2.31,0,0,1,2,1.12A2.54,2.54,0,0,1,433.18,66.3Zm-9.83,0a2.54,2.54,0,0,1-2-4.11,2.11,2.11,0,0,1,1.73-.89h.38a2.29,2.29,0,0,1,2,1.11A2.53,2.53,0,0,1,423.35,66.3Zm-9.83,0a2.55,2.55,0,0,1-2-4.12,2.09,2.09,0,0,1,1.72-.88h.4a2.28,2.28,0,0,1,2,1.1A2.54,2.54,0,0,1,413.52,66.3Z" style="fill:#d2d2d2"/><path d="M472.45,66.3A2.56,2.56,0,0,1,470.57,62a1.94,1.94,0,0,1,1.56-.73h.45a2.27,2.27,0,0,1,2,1.09A2.54,2.54,0,0,1,472.45,66.3Z" style="fill:#d2d2d2"/><path d="M74.25,83.3A2.56,2.56,0,0,1,72.36,79a1.94,1.94,0,0,1,1.56-.73h.45a2.27,2.27,0,0,1,2,1.09A2.54,2.54,0,0,1,74.25,83.3Z" style="fill:#d2d2d2"/><path d="M133.23,83.3a2.54,2.54,0,0,1-2-4.12,2.09,2.09,0,0,1,1.72-.88h.4a2.29,2.29,0,0,1,2,1.1A2.54,2.54,0,0,1,133.23,83.3Zm-9.83,0a2.54,2.54,0,0,1-2-4.1,2.12,2.12,0,0,1,1.75-.9h.36a2.28,2.28,0,0,1,2,1.12A2.53,2.53,0,0,1,123.4,83.3Zm-9.83,0a2.54,2.54,0,0,1-2-4.12,2.09,2.09,0,0,1,1.72-.88h.4a2.26,2.26,0,0,1,2,1.1A2.53,2.53,0,0,1,113.57,83.3Zm-9.83,0a2.54,2.54,0,0,1-2-4.1,2.12,2.12,0,0,1,1.75-.9h.36a2.28,2.28,0,0,1,2,1.12A2.53,2.53,0,0,1,103.74,83.3Zm-9.83,0a2.54,2.54,0,0,1-2-4.12,2.09,2.09,0,0,1,1.71-.88H94a2.26,2.26,0,0,1,2,1.1A2.54,2.54,0,0,1,93.91,83.3Zm-9.83,0a2.54,2.54,0,0,1-2-4.12,2.09,2.09,0,0,1,1.71-.88h.41a2.26,2.26,0,0,1,2,1.1A2.54,2.54,0,0,1,84.08,83.3Z" style="fill:#d2d2d2"/><path d="M143,83.3A2.56,2.56,0,0,1,141.12,79a2,2,0,0,1,1.59-.74h.42a2.27,2.27,0,0,1,2,1.1A2.54,2.54,0,0,1,143,83.3Z" style="fill:#d2d2d2"/><path d="M440.37,175.06a5.54,5.54,0,1,1,5.54-5.54A5.55,5.55,0,0,1,440.37,175.06Zm0-8.42a2.88,2.88,0,1,0,2.88,2.88A2.88,2.88,0,0,0,440.37,166.64Z" style="fill:#eddcce"/><path d="M316.69,42.54A5.54,5.54,0,1,1,322.23,37,5.54,5.54,0,0,1,316.69,42.54Zm0-8.42A2.88,2.88,0,1,0,319.57,37,2.88,2.88,0,0,0,316.69,34.12Z" style="fill:#eddcce"/><path d="M239,60.52A5.54,5.54,0,1,1,244.51,55,5.54,5.54,0,0,1,239,60.52Zm0-8.41A2.88,2.88,0,1,0,241.85,55,2.88,2.88,0,0,0,239,52.11Z" style="fill:#eddcce"/><path d="M125.81,77.43a5.54,5.54,0,1,1,5.54-5.54A5.55,5.55,0,0,1,125.81,77.43Zm0-8.42a2.88,2.88,0,1,0,2.88,2.88A2.88,2.88,0,0,0,125.81,69Z" style="fill:#eddcce"/><path d="M67.71,276.88a5.54,5.54,0,1,1,5.54-5.54A5.55,5.55,0,0,1,67.71,276.88Zm0-8.42a2.88,2.88,0,1,0,2.88,2.88A2.89,2.89,0,0,0,67.71,268.46Z" style="fill:#eddcce"/><path d="M141.57,335.08a5.54,5.54,0,1,1,5.53-5.54A5.55,5.55,0,0,1,141.57,335.08Zm0-8.42a2.88,2.88,0,1,0,2.87,2.88A2.88,2.88,0,0,0,141.57,326.66Z" style="fill:#eddcce"/><path d="M427.33,257.12a5.54,5.54,0,1,1,5.54-5.53A5.54,5.54,0,0,1,427.33,257.12Zm0-8.41a2.88,2.88,0,1,0,2.88,2.88A2.88,2.88,0,0,0,427.33,248.71Z" style="fill:#eddcce"/><path d="M187.12,211a5.54,5.54,0,1,1,5.54-5.54A5.55,5.55,0,0,1,187.12,211Zm0-8.42a2.88,2.88,0,1,0,2.88,2.88A2.89,2.89,0,0,0,187.12,202.57Z" style="fill:#eddcce"/><path d="M117.39,168.67a5.54,5.54,0,1,1,5.54-5.54A5.55,5.55,0,0,1,117.39,168.67Zm0-8.41a2.88,2.88,0,1,0,2.88,2.87A2.88,2.88,0,0,0,117.39,160.26Z" style="fill:#eddcce"/><path d="M183.84,46.3h-1.75V44.17a1.82,1.82,0,0,0-1.59-1.33,1.46,1.46,0,0,0-1.41,1.33V46.3h-1.93a1.17,1.17,0,0,0-1.33,1.21,2.31,2.31,0,0,0,1.33,1.79h1.93v1.55a1.45,1.45,0,0,0,1.41,1.33,1.81,1.81,0,0,0,1.59-1.33V49.3h1.75a2.33,2.33,0,0,0,1.33-1.79A1.17,1.17,0,0,0,183.84,46.3Z" style="fill:#eddcce"/><path d="M60.33,203.3H58.09v-1.91a1,1,0,0,0-1.1-1.33c-.74,0-1.33.59-1.9,1.33v1.91H53.65a1.49,1.49,0,0,0-1.33,1.43,1.75,1.75,0,0,0,1.33,1.57h1.44v1.77c.57.74,1.16,1.33,1.9,1.33a1,1,0,0,0,1.1-1.33V206.3h2.24a1.77,1.77,0,0,0,1.33-1.57A1.5,1.5,0,0,0,60.33,203.3Z" style="fill:#eddcce"/><path d="M377.77,328.3h-1.68v-1.83a2,2,0,0,0-1.66-1.33,1.35,1.35,0,0,0-1.34,1.33v1.83h-2a1.64,1.64,0,0,0-1.33,1.51,1.59,1.59,0,0,0,1.33,1.49h2v1.86a1.35,1.35,0,0,0,1.34,1.33,2,2,0,0,0,1.66-1.33V331.3h1.68a1.59,1.59,0,0,0,1.33-1.49A1.64,1.64,0,0,0,377.77,328.3Z" style="fill:#eddcce"/><path d="M323.31,212.3h-2.22v-1.48a1.07,1.07,0,0,0-1.12-1.33c-.73,0-1.33.6-1.88,1.33v1.48h-1.46c-.73.53-1.33,1.13-1.33,1.86a1.09,1.09,0,0,0,1.33,1.14h1.46v2.2c.55.74,1.15,1.33,1.88,1.33a1.06,1.06,0,0,0,1.12-1.33v-2.2h2.22a1.08,1.08,0,0,0,1.33-1.14A2.54,2.54,0,0,0,323.31,212.3Z" style="fill:#eddcce"/><path d="M122.77,218.3h-1.68v-1.57a2,2,0,0,0-1.66-1.33,1.34,1.34,0,0,0-1.34,1.33v1.57h-2a2.27,2.27,0,0,0-1.33,1.77,1.19,1.19,0,0,0,1.33,1.23h2v2.11a1.34,1.34,0,0,0,1.34,1.33,2,2,0,0,0,1.66-1.33V221.3h1.68a1.19,1.19,0,0,0,1.33-1.23A2.29,2.29,0,0,0,122.77,218.3Z" style="fill:#eddcce"/><path d="M73,106.3H71.09v-1.71a1.46,1.46,0,0,0-1.41-1.33,1.81,1.81,0,0,0-1.59,1.33v1.71H66.34A1.91,1.91,0,0,0,65,107.94a1.38,1.38,0,0,0,1.33,1.36h1.75v2a1.81,1.81,0,0,0,1.59,1.33,1.46,1.46,0,0,0,1.41-1.33v-2H73a1.38,1.38,0,0,0,1.33-1.36A1.91,1.91,0,0,0,73,106.3Z" style="fill:#eddcce"/><path d="M286.19,70.3h-2.1V68.39a1.21,1.21,0,0,0-1.25-1.33,2.21,2.21,0,0,0-1.75,1.33V70.3H279.5a1.49,1.49,0,0,0-1.33,1.43,1.78,1.78,0,0,0,1.33,1.57h1.59v1.77a2.23,2.23,0,0,0,1.75,1.33,1.22,1.22,0,0,0,1.25-1.33V73.3h2.1a1.78,1.78,0,0,0,1.33-1.57A1.49,1.49,0,0,0,286.19,70.3Z" style="fill:#eddcce"/><path d="M348.15,119.3h-2.06v-1.51a1.27,1.27,0,0,0-1.29-1.33,2.1,2.1,0,0,0-1.71,1.33v1.51h-1.63a2.46,2.46,0,0,0-1.33,1.83,1.12,1.12,0,0,0,1.33,1.17h1.63v2.17a2.12,2.12,0,0,0,1.71,1.33,1.27,1.27,0,0,0,1.29-1.33V122.3h2.06a1.12,1.12,0,0,0,1.33-1.17A2.46,2.46,0,0,0,348.15,119.3Z" style="fill:#eddcce"/><path d="M432,73.3h-1.88V71.16a1.55,1.55,0,0,0-1.46-1.33,1.71,1.71,0,0,0-1.54,1.33V73.3h-1.8A1.16,1.16,0,0,0,424,74.5a2.36,2.36,0,0,0,1.33,1.8h1.8v1.54a1.7,1.7,0,0,0,1.54,1.33,1.54,1.54,0,0,0,1.46-1.33V76.3H432a2.34,2.34,0,0,0,1.33-1.8A1.16,1.16,0,0,0,432,73.3Z" style="fill:#eddcce"/><path d="M28.64,405.56c-2.71-7.4-7.78-13.3-11.52-20.12a52.88,52.88,0,0,1-6.32-21.13c-.8-10.06,2.45-19.55,3.57-29.46.83-7.38,1.19-15-1.79-21.9-2.58-6-6.59-11.31-8.92-17.43-2.2-5.81-1.34-16,6.85-15.88,6.71.14,11.68,4.41,15.06,9.8a51.89,51.89,0,0,1,6.58,14.36,66.17,66.17,0,0,1,1.66,14.39c.47,13.33.23,26.84-3.21,39.73-1.05,3.94-2.4,7.82-3.23,11.82a47.21,47.21,0,0,0,7.46,36.2" style="fill:#009ece"/><path d="M26.24,338.46c1.76-1.15,4.13-2.83,6.64-4.82l1-.83c0-.26,0-.51,0-.77l-1.41,1.14c-2.51,2-4.83,3.7-6.52,4.94L24,339.63a79.07,79.07,0,0,0,.48-9.09c0-1.67-.07-3.29-.17-4.86.4-.24,1.4-.93,2.8-2,1.78-1.33,4.18-3.23,6.75-5.43v-.08l0-.67-.26.22c-2.6,2.23-5,4.2-6.72,5.63-1.27,1.05-2.17,1.81-2.55,2.17a79.21,79.21,0,0,0-2.11-13.44c-.05-.2-.1-.39-.16-.6.37-.35,1.26-1.35,2.51-2.79l6.32-7.26.46-.51c-.08-.22-.15-.43-.22-.64l-.68.76c-2.48,2.83-4.66,5.45-6.2,7.38-.77,1-1.38,1.76-1.79,2.31l-.43.61a76.15,76.15,0,0,0-3.71-10.84l.06,0s0,0-.05,0c.21-.25.8-1.27,1.66-2.79,1.52-2.68,2.74-4.81,4-7l1.17-2-.37-.53-1.31,2.22c-1.58,2.73-2.93,5.26-3.85,7.11a28,28,0,0,0-1.35,2.94c0-.06-.05-.12-.07-.17-.6-1.35-1.09-2.39-1.46-3.07a6.85,6.85,0,0,0-.57-1,5.72,5.72,0,0,0,.43,1.1c.32.71.76,1.77,1.32,3.13v0c-.5-.07-1.41-.17-2.6-.43-1.87-.39-4.41-1.17-7.29-1.78-1.21-.26-2.38-.48-3.46-.67.09.21.18.41.28.62,1,.19,2,.4,3.05.63,2.86.6,5.42,1.32,7.34,1.61a12.87,12.87,0,0,0,2.75.18,85.41,85.41,0,0,1,3.44,10.7c-1.2-.26-4.53-.72-8.48-1.16l-1.74-.19.31.62,1.36.15c4,.46,7.43.75,8.6.77.06.26.13.51.19.78a81.9,81.9,0,0,1,1.94,13.07c-.39-.26-1-.62-1.75-1.06-1.46-.84-3.53-1.91-5.88-3-.43-.2-.85-.38-1.27-.55,0,.22,0,.44.08.67l.95.41c2.34,1.05,4.42,2.06,5.93,2.8.86.43,1.53.75,2,.94.1,1.62.15,3.28.15,5a83.42,83.42,0,0,1-.58,9.55c-.82-.52-3.51-1.89-6.61-3.7-.77-.45-1.5-.88-2.18-1.3,0,.21-.05.41-.08.61.62.39,1.27.8,2,1.2,1.89,1.1,3.67,2,5,2.59a20.2,20.2,0,0,0,1.9.77c-.41,3.76-1,7.65-1.56,11.65-1.19-.67-3.74-2-6.67-3.54-.9-.48-1.76-.94-2.55-1.38,0,.2-.08.39-.11.58.74.42,1.54.87,2.39,1.32,2.05,1.09,3.94,2,5.34,2.62.64.29,1.17.51,1.56.66l-.12.88c-.53,3.84-1,7.62-1.14,11.3-.94-.61-3.54-2.05-6.59-3.76L10.73,359c0,.21,0,.41,0,.62.81.48,1.71,1,2.66,1.54,2,1.09,3.75,2,5.07,2.65.81.38,1.43.66,1.8.8,0,.07,0,.15,0,.22a63,63,0,0,0,.46,10.66c-.76-.48-3.22-1.72-6.17-3.08-1-.45-1.87-.86-2.7-1.22,0,.22.09.44.14.66.72.35,1.5.71,2.31,1.09,3.08,1.42,5.68,2.52,6.44,2.73,0,.05,0,.1,0,.15a62.6,62.6,0,0,0,1.9,8.94,60.18,60.18,0,0,0-6.18-1.48l-.53-.11c.11.23.23.45.35.67l.06,0a56.79,56.79,0,0,0,6.34,1.05,60.52,60.52,0,0,0,3.27,8.73c.19.41.38.8.57,1.19-.77-.26-2.38-.67-4.26-1.08l.45.7a35.74,35.74,0,0,0,3.94.65,59.62,59.62,0,0,0,5.71,9.3l1.17,1.51.31,0-.09-.12c-.36-.49-.73-1-1.14-1.59a65,65,0,0,1-5.53-9.45,23.51,23.51,0,0,0,1.22-2.59l-.24-.86c-.5,1.38-.91,2.52-1.11,3.17-.16-.36-.33-.71-.49-1.08a60.93,60.93,0,0,1-3.21-8.91,37.7,37.7,0,0,0,3.27-2.79c0-.25,0-.5,0-.75-1.47,1.47-2.7,2.65-3.31,3.29a63.81,63.81,0,0,1-1.73-8.52l0-.3c.9-.75,3.1-2.88,5.63-5.45l.37-.38.24-1.07-1,1c-2.4,2.44-4.42,4.59-5.24,5.58A63.11,63.11,0,0,1,21,364.81l0-.45c.43-.24,1.08-.63,1.89-1.15,1.49-.95,3.52-2.32,5.71-3.91.69-.5,1.36-1,2-1.48.07-.29.14-.58.22-.87l-2.57,1.88-5.6,4c-.69.5-1.25.91-1.64,1.21.18-3.55.62-7.19,1.13-10.92l.15-1.07c1.17-.6,4.38-2.54,8.13-4.92L33,345.55c0-.24.05-.47.08-.71-.92.57-1.9,1.18-2.93,1.84-3.6,2.28-6.62,4.29-7.78,5.15.59-4.08,1.17-8.07,1.57-11.93C24.43,339.61,25.23,339.13,26.24,338.46Z" style="fill:#007ab8"/><path d="M48.37,405.56c2.72-7.4,7.79-13.3,11.53-20.12a52.86,52.86,0,0,0,6.31-21.13c.81-10.06-2.45-19.55-3.56-29.46-.83-7.38-1.2-15,1.78-21.9,2.59-6,6.59-11.31,8.92-17.43,2.21-5.81,1.34-16-6.85-15.88-6.71.14-11.68,4.41-15.06,9.8a52.18,52.18,0,0,0-6.58,14.36,66.79,66.79,0,0,0-1.66,14.39c-.47,13.33-.23,26.84,3.21,39.73,1.05,3.94,2.4,7.82,3.23,11.82a47.25,47.25,0,0,1-7.45,36.2" style="fill:#00b2db"/><path d="M50.77,338.46c-1.75-1.15-4.12-2.83-6.64-4.82l-1-.83c0-.26,0-.51,0-.77.46.38.93.75,1.42,1.14,2.5,2,4.82,3.7,6.51,4.94l2.05,1.51a79.07,79.07,0,0,1-.48-9.09c0-1.67.07-3.29.17-4.86-.4-.24-1.4-.93-2.8-2-1.78-1.33-4.18-3.23-6.75-5.43v-.08l0-.67.26.22c2.6,2.23,5,4.2,6.72,5.63,1.27,1.05,2.18,1.81,2.55,2.17a79.21,79.21,0,0,1,2.11-13.44c.05-.2.11-.39.16-.6-.37-.35-1.26-1.35-2.51-2.79l-6.32-7.26-.46-.51c.08-.22.15-.43.23-.64l.67.76c2.49,2.83,4.67,5.45,6.2,7.38.77,1,1.38,1.76,1.79,2.31.19.26.34.46.44.61a76.32,76.32,0,0,1,3.7-10.84l-.06,0s0,0,.06,0c-.21-.25-.8-1.27-1.66-2.79-1.53-2.68-2.75-4.81-4-7-.39-.66-.77-1.32-1.17-2l.37-.53c.43.71.86,1.45,1.31,2.22,1.58,2.73,2.93,5.26,3.85,7.11a28,28,0,0,1,1.35,2.94c0-.06,0-.12.07-.17.61-1.35,1.09-2.39,1.46-3.07a5.44,5.44,0,0,1,.58-1,7.68,7.68,0,0,1-.44,1.1c-.32.71-.76,1.77-1.31,3.13l0,0c.51-.07,1.42-.17,2.61-.43,1.86-.39,4.41-1.17,7.28-1.78,1.22-.26,2.38-.48,3.47-.67l-.29.62c-1,.19-2,.4-3,.63-2.86.6-5.42,1.32-7.34,1.61a12.81,12.81,0,0,1-2.74.18,83.55,83.55,0,0,0-3.45,10.7c1.2-.26,4.54-.72,8.49-1.16l1.73-.19-.31.62-1.36.15c-4,.46-7.43.75-8.59.77-.07.26-.14.51-.2.78a81.9,81.9,0,0,0-1.94,13.07c.39-.26,1-.62,1.75-1.06,1.46-.84,3.53-1.91,5.88-3,.43-.2.85-.38,1.27-.55,0,.22,0,.44-.08.67l-.95.41c-2.33,1.05-4.42,2.06-5.93,2.8-.86.43-1.53.75-2,.94-.1,1.62-.15,3.28-.15,5a83.42,83.42,0,0,0,.58,9.55c.82-.52,3.51-1.89,6.61-3.7.77-.45,1.5-.88,2.19-1.3,0,.21,0,.41.07.61-.61.39-1.27.8-2,1.2-1.9,1.1-3.68,2-5,2.59a20.2,20.2,0,0,1-1.9.77c.41,3.76,1,7.65,1.56,11.65,1.19-.67,3.74-2,6.67-3.54L64.69,347c0,.2.07.39.1.58-.74.42-1.54.87-2.38,1.32-2.06,1.09-3.95,2-5.34,2.62-.65.29-1.18.51-1.57.66,0,.29.08.58.13.88.52,3.84,1,7.62,1.13,11.3.94-.61,3.54-2.05,6.59-3.76L66.28,359c0,.21,0,.41,0,.62-.81.48-1.71,1-2.66,1.54-2,1.09-3.75,2-5.07,2.65-.8.38-1.43.66-1.8.8,0,.07,0,.15,0,.22a61,61,0,0,1-.46,10.66c.77-.48,3.22-1.72,6.17-3.08,1-.45,1.87-.86,2.7-1.22,0,.22-.09.44-.14.66-.72.35-1.5.71-2.31,1.09-3.07,1.42-5.68,2.52-6.44,2.73,0,.05,0,.1,0,.15a65.47,65.47,0,0,1-1.9,8.94,59.75,59.75,0,0,1,6.17-1.48l.53-.11c-.11.23-.23.45-.34.67l-.07,0a56.79,56.79,0,0,1-6.34,1.05,60.52,60.52,0,0,1-3.27,8.73c-.19.41-.38.8-.57,1.19.77-.26,2.38-.67,4.27-1.08l-.45.7a35.81,35.81,0,0,1-4,.65,59.62,59.62,0,0,1-5.71,9.3l-1.17,1.51-.31,0,.09-.12q.54-.74,1.14-1.59a65,65,0,0,0,5.53-9.45,23.51,23.51,0,0,1-1.22-2.59c.08-.29.17-.57.24-.86.5,1.38.91,2.52,1.11,3.17.16-.36.33-.71.49-1.08a60.93,60.93,0,0,0,3.21-8.91,38,38,0,0,1-3.26-2.79c0-.25,0-.5,0-.75,1.47,1.47,2.7,2.65,3.31,3.29a63.81,63.81,0,0,0,1.73-8.52l0-.3c-.89-.75-3.1-2.88-5.63-5.45l-.37-.38-.24-1.07c.34.33.68.68,1,1,2.41,2.44,4.42,4.59,5.24,5.58A62,62,0,0,0,56,364.81c0-.15,0-.3,0-.45-.44-.24-1.08-.63-1.89-1.15-1.5-.95-3.53-2.32-5.71-3.91-.7-.5-1.37-1-2-1.48l-.21-.87,2.56,1.88,5.6,4c.69.5,1.25.91,1.64,1.21-.18-3.55-.61-7.19-1.12-10.92-.05-.36-.1-.72-.16-1.07-1.16-.6-4.38-2.54-8.13-4.92L44,345.55c0-.24-.05-.47-.08-.71.92.57,1.9,1.18,2.93,1.84,3.6,2.28,6.62,4.29,7.78,5.15-.59-4.08-1.17-8.07-1.57-11.93C52.58,339.61,51.79,339.13,50.77,338.46Z" style="fill:#007ab8"/><path d="M41.38,408.3c-2.27-1.56-3.6-4.14-4.7-6.67-4.56-10.47-7.45-22.74-6-34.15,1.53-12,4.16-24.11,3.45-36.25a83.46,83.46,0,0,0-4-20.19c-3.66-11.6-10.51-32.45,1.19-42,5.91-4.82,12.54,1.5,16.19,6.11,6.15,7.77,8.13,18.63,9.55,28.18,3,19.94-3.85,39.17-9.55,58a158.79,158.79,0,0,0-6.28,29.75,34,34,0,0,0-.06,8.67c.68,4.46,3.24,6.91,5.81,10.29" style="fill:#008ec6"/><path d="M41.54,407.65l-.62-1.42c-.25-.56-.47-1.24-.75-2a57.11,57.11,0,0,1-2.9-11.71c.46-.24,1.35-.79,2.56-1.58l1.53-1,.09-.75-1.89,1.41c-1.09.82-1.9,1.43-2.31,1.78-.06-.41-.12-.8-.17-1.22a81.79,81.79,0,0,1-.5-12c1.21-.64,4-2.32,7.38-4.45.07-.3.13-.6.2-.89-3.47,2.23-6.33,4.15-7.56,5.06.07-2.48.22-5.07.48-7.75.21-2.26.49-4.6.82-7a38.68,38.68,0,0,1,3.37-2.49c2-1.34,4.73-3.14,7.72-5.18l.3-1c-3.25,2.23-6.16,4.26-8.29,5.8a24.65,24.65,0,0,0-2.61,2.14c-.19.18-.33.33-.45.46.21-1.49.43-3,.67-4.52.5-3.14,1.06-6.37,1.6-9.67.66-.31,1.7-.85,3.06-1.56,2.3-1.22,5.47-3,8.94-4.88l.85-.48.24-.87-1.4.78c-3.48,1.94-6.61,3.72-8.86,5.05-1.22.71-2.16,1.28-2.78,1.68l.42-2.63c.66-4.33,1.21-8.57,1.43-12.71,0-.8.08-1.59.1-2.38l.65-.38c.77-.46,1.86-1.16,3.19-2.06a124.93,124.93,0,0,0,10-7.55l1.38-1.17c0-.3.05-.61.08-.92-.61.53-1.24,1.06-1.88,1.59-3.75,3.13-7.27,5.79-9.85,7.67l-3.07,2.23-.5.37c.11-3.21.08-6.32-.07-9.31s-.43-6-.78-8.8c.17-.14.44-.37.83-.72l2.67-2.47c2.24-2.1,5.33-5,8.78-8.16l2.81-2.55c0-.24-.09-.49-.13-.73-1,.89-2,1.83-3.11,2.8-3.46,3.17-6.51,6.12-8.67,8.31-1.08,1.09-1.94,2-2.52,2.62-.31.33-.54.58-.68.76-.08-.6-.15-1.2-.24-1.79-.46-3.34-1-6.43-1.64-9.24-.4-1.88-.82-3.62-1.23-5.23l.49-.42c.66-.58,1.6-1.43,2.74-2.5,2.3-2.14,5.41-5.16,8.75-8.58l2-2.08c-.09-.22-.19-.44-.28-.65-.73.75-1.46,1.5-2.2,2.28l-8.61,8.7-2.6,2.65-.36.38c-.8-3.1-1.57-5.68-2.2-7.67-.47-1.53-.89-2.7-1.17-3.5a7.19,7.19,0,0,0-.48-1.19,7.06,7.06,0,0,0,.31,1.25c.3,1,.63,2.2,1,3.54.56,2,1.26,4.55,2,7.61-.48-.25-1.56-.72-3.07-1.33-2.11-.86-5-2-8.33-3.16l-1-.34c0,.24.07.48.11.73l.64.23,8.39,3c1.62.56,2.78.95,3.27,1.06,0,.1.05.19.07.28s-.12.16-.11.17.06,0,.13-.07c.36,1.55.73,3.21,1.09,5,.56,2.8,1.1,5.88,1.53,9.21.06.44.11.9.17,1.35-.39-.23-1.3-.68-2.57-1.27-1.76-.81-4.2-1.89-6.91-3.05l-2-.84c.08.27.16.53.25.8l1.48.64c2.71,1.15,5.18,2.17,7,2.87,1.4.55,2.38.9,2.78,1,.35,2.9.63,6,.76,9.17.13,3,.15,6,0,9.22-.37-.29-.92-.69-1.6-1.19l-5.42-3.93-.78-.58.12.9.27.21c2.12,1.55,4.09,2.88,5.55,3.79.79.49,1.42.86,1.85,1.09,0,.76-.06,1.53-.11,2.31-.23,4.1-.78,8.32-1.44,12.63l-.39,2.39c-.81-1.11-2.58-3.28-4.7-5.74l-.76-.89c0,.3,0,.61-.08.91l.35.4c2.24,2.6,4.22,4.79,5.13,5.67-.54,3.35-1.08,6.64-1.6,9.84q-.36,2.33-.66,4.59c-.76-.85-2.68-2.76-4.77-5.12l-.35-.4c0,.28-.08.56-.13.84a37.13,37.13,0,0,0,5.21,5c-.32,2.36-.59,4.68-.79,6.94-.25,2.81-.39,5.52-.44,8.12-.24-.26-.55-.61-.9-1.05-.82-1-2-2.5-3.39-4q-.63-.67-1.23-1.26c0,.3,0,.59,0,.89l.76.81c1.4,1.48,2.6,2.87,3.52,3.85a7.37,7.37,0,0,0,1.25,1.09,79.84,79.84,0,0,0,.63,11.68c.05.36.11.71.16,1.06-.6-.72-2.35-2.49-4.64-4.72.08.36.17.72.26,1.07,2.19,2,3.87,3.51,4.42,3.9a54.31,54.31,0,0,0,3.18,11.84c.32.74.56,1.42.83,2s.49,1,.7,1.4l.36.68.14,0Z" style="fill:#005b7f"/><path d="M11.74,403.3c-.41,4-2.92,33.94,12.76,46.85a5,5,0,0,0,3.2,1.15H51.56a5.09,5.09,0,0,0,3.21-1.15c15.67-12.91,13.17-42.87,12.76-46.85Z" style="fill:#edce4f"/><g style="opacity:0.32;mix-blend-mode:multiply"><path d="M63.06,424.62c-7.14-5.42-19.69-.35-26.26,3.8-6.88,4.35-11.15,11.3-16.26,17.44a26,26,0,0,0,4.1,4.23l0,0c1.22-1.38,2.41-2.83,3.55-4.32C32,441,35.62,436.26,40.86,433a31,31,0,0,1,9.4-3.75c2.77-.67,7.89-1.74,9.9.94s1.89,6.63,1.92,10.36a48.68,48.68,0,0,0,4-11.95A10.39,10.39,0,0,0,63.06,424.62Z" style="fill:#ffac00"/><path d="M61.19,408.37c-4.16,1.28-8.36,2.42-12.58,3.48-12,3-24.07,6.2-35.13,11.95l-.84.46c3.09-3.37,5.83-7.12,8.51-10.19A100.38,100.38,0,0,1,31.91,403.3H23c-4.05,4-7.78,8.39-11.39,12.73h0a74.34,74.34,0,0,0,2,14.53c2.42-1.4,4.88-2.64,7.23-3.73,10.27-4.77,21.54-7.18,32.45-10,4.18-1.1,9.55-2.12,14.38-4,0-2.62-.06-4.87-.16-6.57A60.77,60.77,0,0,1,61.19,408.37Z" style="fill:#ffac00"/><path d="M49.74,436.76c-5.89-.15-10.89,3.13-14.92,7.16a29.28,29.28,0,0,0-5.09,7.38h6.9c.2-.33.4-.66.62-1,2.67-3.92,9-9.34,14.06-7,2.25,1,3.65,3.27,4.68,5.7a27.87,27.87,0,0,0,4.11-5C58,440.27,54.21,436.87,49.74,436.76Z" style="fill:#ffac00"/></g><g style="opacity:0.17;mix-blend-mode:multiply"><path d="M52.56,432.06c-4.74-.89-9.64-1.19-14.16-2.87a24.64,24.64,0,0,1-12.27-10.05c-2.61-4.22-3.88-9.13-4.67-14-.1-.6-.18-1.21-.27-1.81H11.76c-.41,4-2.92,33.94,12.76,46.85a5.06,5.06,0,0,0,3.2,1.15H51.58a5,5,0,0,0,3.18-1.13A32.24,32.24,0,0,0,64.22,436,40.27,40.27,0,0,0,52.56,432.06Z" style="fill:#ffac00"/></g><rect x="9.09" y="398.3" width="62" height="11" rx="4.59" style="fill:#f9db5d"/><polygon points="435.07 392.3 443.23 450.3 481.27 450.3 489.44 392.3 435.07 392.3" style="fill:#e3fcfc"/><path d="M481.06,448.83l.77-2.46,1.3-9.26-.3,1-3.11-1.94,1.08-3.5,2.72,1.69.23-1.62-2.49-1.54,1.08-3.5,2,1.21.23-1.62-1.72-1.07,1.08-3.5,1.18.73.22-1.62-.94-.58,1.09-3.5.4.24.22-1.61-.17-.11.34-1.1,1.37-9.7-3-1.9,1.08-3.5,2.51,1.56.23-1.62-2.28-1.41,1.08-3.5,1.74,1.07.22-1.61-1.5-.94.4-1.28h-1.57l-.14.47-.76-.47h-4.37l-.84,2.7-3.11-1.94.23-.76h-4.29l2.29,1.42-1.08,3.5-3.12-1.93.93-3h-1.56l-.68,2.18-3.11-1.94.07-.24h-3.29l1.45.9L464,396.7l-3.12-1.93.77-2.47h-1.57l-.51,1.66-2.67-1.66h-2.83l.62.38-1.08,3.5-3.12-1.93.61-1.95h-1.57l-.35,1.14-1.83-1.14h-3.09l-1.05,3.36-3.11-1.93.44-1.43H439l-.19.62-1-.62h-2.72v.08l3.24,2-1.08,3.5-1.52-.94.27,1.93.79.49-.49,1.6.62,4.41,2.76,1.71-1.09,3.5-1-.64.27,1.93.31.19-.19.61.48,3.47,1-3.27,3.11,1.93-1.08,3.5-3-1.86.27,1.93,2.27,1.41-1.08,3.5-.55-.34.69,4.92.71-2.29,3.12,1.93-1.09,3.5-2.51-1.56.27,1.93,1.79,1.11-1.13,3.62.49,3.47.29-.92,3.11,1.93-1.08,3.5L442.2,443l.27,1.92,1.11.7-.7,2.25.35,2.48h1.25l-.67-.42,1.08-3.5,3.12,1.93-.62,2H449l.36-1.17,1.89,1.17h3l1-3.4,3.12,1.93-.46,1.47h1.57l.2-.65,1.05.65h4l1-3.26,3.12,1.93-.42,1.33h1.57l.16-.51.82.51h4.29l.85-2.74,3.12,1.93-.25.81h2.22l.18-1.23Zm1.41-9.28-1.09,3.52-3.13-1.94,1.09-3.52Zm-37.14-29,3.13,2L447.37,416l-3.13-1.94Zm-4-4.24,1.09-3.51,3.13,1.94-1.09,3.52Zm40,2.75-1.09,3.52-3.13-1.94,1.09-3.52Zm-2.67-3.42,1.09-3.52,3.12,1.95-1.09,3.51Zm1.12,8.42-1.09,3.52-3.13-1.94,1.09-3.52Zm-31.09,2.77,1.09-3.52,3.13,1.95-1.09,3.51Zm2.67,3.42-1.09,3.52-3.12-1.94,1.09-3.52Zm1.32.82L455.8,423l-1.09,3.52-3.13-1.94Zm.46-1.48,1.09-3.52,3.13,1.95-1.09,3.51Zm4,4.24,3.12,1.94-1.09,3.52L456,427.33Zm.45-1.48,1.09-3.52,3.13,1.95-1.09,3.51Zm1.55-5,1.09-3.51,3.13,1.94-1.09,3.52Zm4,4.24,3.13,1.95L465.15,427,462,425.09Zm.46-1.48,1.09-3.51,3.12,1.94L466.69,422Zm4,4.24,3.13,1.95-1.09,3.51-3.13-1.94Zm.46-1.48,1.09-3.51,3.13,1.94-1.09,3.52Zm1.55-5,1.09-3.52,3.13,1.94-1.09,3.52Zm4,4.24,3.12,1.94-1.09,3.52-3.12-1.95Zm.45-1.48,1.09-3.52,3.13,1.94-1.09,3.52Zm1.78-10.82-3.13-1.94,1.09-3.52,3.13,1.94Zm-.46,1.48-1.09,3.52-3.12-1.94,1.09-3.52Zm-4-4.24-3.13-1.94,1.09-3.52,3.13,1.94Zm-.46,1.48L469.79,412l-3.13-1.94,1.09-3.52Zm-1.55,5L468.24,417l-3.13-1.94,1.09-3.52Zm-4-4.24-3.12-1.94,1.09-3.52,3.12,1.94Zm-.45,1.48-1.09,3.52-3.13-1.94,1.09-3.52Zm-4-4.24-3.13-1.94,1.09-3.52L462,403Zm-.46,1.48-1.09,3.52-3.13-1.94,1.09-3.52Zm-1.55,5-1.09,3.52-3.12-1.95,1.09-3.51Zm-4-4.24-3.13-1.94,1.09-3.52,3.13,1.94Zm-.46,1.48-1.09,3.52-3.13-1.95,1.09-3.51Zm-4-4.24-3.13-1.94,1.09-3.52,3.13,1.94Zm-.46,1.48L448.91,411l-3.12-1.95,1.09-3.51Zm-3.09,10L445.82,421l-3.13-1.94,1.09-3.52Zm-.23,5.82,3.13,1.94-1.09,3.52-3.13-1.94Zm1.58,6.94-1.09,3.52L444,431.81l1.09-3.52Zm-.23,5.82,3.13,1.94-1.21,3.9-3.13-1.95Zm.46-1.48,1.09-3.52L452.7,433l-1.09,3.52Zm1.54-5,1.09-3.52,3.13,1.94-1.09,3.52Zm4,4.24,3.13,1.94-1.09,3.52-3.13-1.94Zm.46-1.48,1.09-3.52,3.13,1.94-1.09,3.52Zm4,4.24,3.12,1.94L460.5,442l-3.12-1.94Zm.45-1.48,1.09-3.52,3.13,1.94L462.05,437Zm1.55-5,1.09-3.52,3.13,1.94L463.6,432Zm4,4.24,3.13,1.94-1.09,3.52-3.13-1.94Zm.46-1.48,1.09-3.52,3.12,1.94L468,434.79Zm4,4.24L472,439l-1.09,3.52-3.13-1.94Zm.46-1.48,1.09-3.52,3.13,1.94-1.09,3.52Zm1.55-5,1.09-3.52,3.13,2L474,432.55Zm4,4.24,3.12,1.94-1.09,3.52-3.12-1.94Zm.45-1.48,1.09-3.52,3.13,1.95-1.09,3.51Zm4.68-3.05-3.13-1.95,1.09-3.51,3.13,1.94Zm1.55-5-3.13-1.94,1.09-3.52,3.13,1.94Zm1.54-5L480,418.38l1.09-3.52,3.12,1.94Zm1.55-5-3.13-1.94,1.09-3.52,3.13,1.94Zm2.64-8.51-1.09,3.51-3.13-1.94,1.09-3.52Zm-4.48-14.7,3.13,1.94-1.09,3.52-3.13-1.94Zm-1.55,5,3.13,1.94-1.09,3.52-3.13-1.95Zm-4.44-2.76,3.13,1.94-1.09,3.52-3.13-1.95Zm-1.55,5,3.13,2-1.09,3.51-3.13-1.94Zm-4.44-2.76,3.12,1.95L472.88,402l-3.12-1.94Zm-4.45-2.76,3.13,1.95-1.09,3.51-3.13-1.94Zm-1.55,5,3.13,1.94-1.09,3.52-3.13-1.94Zm-4.44-2.76,3.13,1.94-1.09,3.52-3.13-1.94ZM456,393.3l3.13,1.94L458,398.76l-3.13-1.94Zm-1.54,5,3.12,1.94-1.09,3.52-3.12-1.94ZM450,395.54l3.13,1.94L452,401l-3.13-1.94Zm-4.44-2.76,3.12,1.94-1.09,3.52-3.12-1.94Zm-1.55,5,3.13,1.94L446,403.24l-3.13-1.94ZM439.53,395l3.13,1.94-1.09,3.52-3.13-1.94Zm-2.63,8.51L438,400l3.12,1.94L440,405.48Zm2.89,7.76,1.09-3.52,3.13,2-1.09,3.51Zm1.35,12.76,1.09-3.52,3.13,1.94L444.27,426Zm1.24,13.13,1.2-3.89,3.13,1.94-1.21,3.9Zm6,9.7-3.13-1.94,1.09-3.51,3.13,1.94Zm4.45,2.76-3.13-1.94,1.09-3.51,3.13,1.94Zm1.54-5-3.12-1.95,1.2-3.89,3.13,1.94Zm4.45,2.76-3.13-2,1.21-3.89,3.13,1.94Zm4.44,2.76-3.12-1.95,1.2-3.89,3.13,1.94Zm1.67-5.38-3.13-1.94,1.09-3.52,3.13,1.94Zm4.44,2.76-3.12-1.94,1.09-3.52,3.12,1.94Zm4.45,2.76-3.13-1.94,1.09-3.52,3.13,1.94Zm1.55-5-3.13-1.94,1.09-3.52,3.13,1.94Zm4.44,2.76-3.13-1.94,1.09-3.52,3.13,1.94Z" style="fill:#0cf;mix-blend-mode:multiply"/><rect x="432.09" y="389.3" width="60" height="4" rx="0.99" style="fill:#0cf"/><rect x="442.09" y="448.3" width="41" height="4" rx="0.99" style="fill:#0cf"/><path d="M380.23,446.3H371a5.86,5.86,0,0,1-5.86-5.86v-6.28A5.86,5.86,0,0,1,371,428.3h9.28a5.86,5.86,0,0,1,5.86,5.86v6.28A5.86,5.86,0,0,1,380.23,446.3Zm-12.14-12.13v6.26A2.88,2.88,0,0,0,371,443.3h9.25a2.87,2.87,0,0,0,2.87-2.87v-6.26a2.87,2.87,0,0,0-2.87-2.87H371A2.88,2.88,0,0,0,368.09,434.17Z" style="fill:#113f56"/><polygon points="367.36 423.3 364.17 423.3 353.42 423.3 356.06 452.3 364.17 452.3 367.36 452.3 375.47 452.3 378.11 423.3 367.36 423.3" style="fill:#0d334a"/><path d="M102.09,436.3h50.75a5.25,5.25,0,0,1,5.25,5.25V445a5.25,5.25,0,0,1-5.25,5.25H102.09a0,0,0,0,1,0,0v-14A0,0,0,0,1,102.09,436.3Z" style="fill:#cdebed"/><g style="mix-blend-mode:multiply"><path d="M155.86,441.47a6.35,6.35,0,0,1,1.27,5.79,7.54,7.54,0,0,0,.54-6.44,7,7,0,0,0-6.62-4.52h-49v2H149.3A8.16,8.16,0,0,1,155.86,441.47Z" style="fill:#cdebed"/></g><path d="M150.16,436.3H101.09v1h52.35a5.89,5.89,0,0,1,5.48,3.5,6,6,0,0,1-5.49,8.5H101.09v2h48.75a7.71,7.71,0,0,0,7.76-6.57A7.51,7.51,0,0,0,150.16,436.3Z" style="fill:#0d334a"/><path d="M150.16,441.3H105.29c-.17-.24-.32-.38-.32-.56s.15-.32.32-.44h44.87a.58.58,0,0,1,.32.44C150.48,440.92,150.34,441.06,150.16,441.3Z" style="fill:#fff"/><path d="M150.16,444.3H105.29c-.17-.44-.32-.59-.32-.76s.15-.33.32-.24h44.87c.18-.09.32.06.32.24S150.34,443.86,150.16,444.3Z" style="fill:#fff"/><path d="M150.16,446.3H105.29c-.17.35-.32.21-.32,0s.15-.32.32,1h44.87c.18-1.29.32-1.15.32-1S150.34,446.65,150.16,446.3Z" style="fill:#fff"/><path d="M107.09,412.3h38.45a4.55,4.55,0,0,1,4.55,4.55v2.89a4.55,4.55,0,0,1-4.55,4.55H107.09a0,0,0,0,1,0,0v-12A0,0,0,0,1,107.09,412.3Z" style="fill:#cdebed"/><g style="mix-blend-mode:multiply"><path d="M150.05,419.87a6.09,6.09,0,0,1-.19,1.43,5.79,5.79,0,0,0,.88-3.06,6,6,0,0,0-5.87-5.94H107.09v2h37.1A5.44,5.44,0,0,1,150.05,419.87Z" style="fill:#cdebed"/></g><path d="M143.62,411.3H106.09v2h38.27a5.14,5.14,0,0,1,5.12,4,5,5,0,0,1-4.9,6H106.09v1h37.25a6.7,6.7,0,0,0,6.73-5.7A6.5,6.5,0,0,0,143.62,411.3Z" style="fill:#59afec"/><path d="M143.78,416.3H110c-.15-.21-.28-.33-.28-.49s.13-.27.28-.51h33.77c.15.24.28.36.28.51S143.93,416.09,143.78,416.3Z" style="fill:#fff"/><path d="M143.78,417.3H110c-.15,1.22-.28,1.1-.28.94s.13-.28.28.06h33.77c.15-.34.28-.21.28-.06S143.93,418.52,143.78,417.3Z" style="fill:#fff"/><path d="M143.78,421.3H110c-.15-.35-.28-.48-.28-.63a.47.47,0,0,1,.28-.37h33.77a.47.47,0,0,1,.28.37C144.06,420.82,143.93,421,143.78,421.3Z" style="fill:#fff"/><path d="M96.09,425.3h45.24a3.76,3.76,0,0,1,3.76,3.76v2.47a3.76,3.76,0,0,1-3.76,3.76H96.09a0,0,0,0,1,0,0v-10A0,0,0,0,1,96.09,425.3Z" style="fill:#cdebed"/><g style="mix-blend-mode:multiply"><path d="M144.61,431.84a5.09,5.09,0,0,1-.16,1.18,4.83,4.83,0,0,0,.73-2.53c0-2.67-2.17-4.84-4.85-4.19H96.09v1h43.67A4.42,4.42,0,0,1,144.61,431.84Z" style="fill:#cdebed"/></g><path d="M140,425.3H95.09v1h43.36a4.14,4.14,0,0,1,4.2,3.63,4,4,0,0,1-4,4.37H95.09v2h44.65a5.69,5.69,0,0,0,5.76-5A5.5,5.5,0,0,0,140,425.3Z" style="fill:#f0c40c"/><path d="M139.42,428.3H98.25c-.13.42-.24.32-.24.19s.11-.23.24.81h41.17c.13-1,.23-.94.23-.81S139.55,428.72,139.42,428.3Z" style="fill:#fff"/><path d="M139.42,430.3H98.25c-.13.43-.24.32-.24.19s.11-.23.24.81h41.17c.13-1,.23-.93.23-.81S139.55,430.73,139.42,430.3Z" style="fill:#fff"/><path d="M139.42,432.3H98.25c-.13.43-.24.33-.24.2s.11-.23.24.8h41.17c.13-1,.23-.93.23-.8S139.55,432.73,139.42,432.3Z" style="fill:#fff"/><rect x="398.09" y="403.3" width="4" height="33" style="fill:#9bced3"/><rect x="398.09" y="407.3" width="4" height="32" style="fill:#9b88fe"/><rect x="398.09" y="406.3" width="4" height="1" style="fill:#cdebed"/><rect x="398.19" y="418.43" width="17.71" height="6.76" transform="translate(-38.08 803.22) rotate(-86.61)" style="fill:#f0c40c"/><path d="M405.33,411.4h4.43a1.36,1.36,0,0,1,1.36,1.36v2.44a0,0,0,0,1,0,0H404a0,0,0,0,1,0,0v-2.44A1.36,1.36,0,0,1,405.33,411.4Z" transform="translate(25.13 -23.35) rotate(3.39)" style="fill:#0d334a"/><path d="M408.25,420.38h0a1.11,1.11,0,0,1-1-1.18l.27-4.63a1.12,1.12,0,0,1,1.18-1.05h0a1.12,1.12,0,0,1,1.05,1.18l-.28,4.64A1.1,1.1,0,0,1,408.25,420.38Z" style="fill:#0d334a"/><rect x="392.36" y="415.61" width="5.13" height="13.42" transform="translate(-39.87 41.17) rotate(-5.68)" style="fill:#59afec"/><path d="M392.94,414.45h2.7a1.36,1.36,0,0,1,1.36,1.36v1.52a0,0,0,0,1,0,0h-5.43a0,0,0,0,1,0,0v-1.52a1.36,1.36,0,0,1,1.36-1.36Z" transform="translate(-39.24 41.08) rotate(-5.68)" style="fill:#0d334a"/><path d="M395.65,421.11h0a.84.84,0,0,1-.92-.75l-.35-3.51a.85.85,0,0,1,.76-.92h0a.83.83,0,0,1,.92.75l.35,3.51A.84.84,0,0,1,395.65,421.11Z" style="fill:#0d334a"/><polygon points="389.32 424.3 391.26 451.3 410.37 451.3 412.31 424.3 389.32 424.3" style="fill:#59afec"/><path d="M412.69,427.3H388.26a2,2,0,0,1-2-2h0a2,2,0,0,1,2-2h24.43a2,2,0,0,1,2,2h0A2,2,0,0,1,412.69,427.3Z" style="fill:#0d334a"/><g style="opacity:0.22;mix-blend-mode:multiply"><path d="M391.25,451.3h19.11l0-.57c-3.18-2.1-6.62-3.92-9.38-6.54-4.6-4.34-7-10.63-7.7-16.92-.1-1-.16-2-.19-3h-3.77l0,.11Z" style="fill:#59afec"/></g><path d="M231.56,316.24c-36,30.25-56.35-10.81-48.25-32,0,0,10.5,6,11-1.07s-6.6-2.07-9.63-4.75-1.89-6.34.9-7.25,4.05,0,4.62,3.5c.51,3.16,5.44,3.55,6.53.88s.4-11.4-12.32-11.76c-.36-1.82,3.69-16.92-3.24-16.83-5.52.07-3.35,12.16-3.23,15.55-1.94-5.69-2.19-15.22-8-12.32s3.33,15.74,3.33,15.74-6.23-10.57-10-5.67c-2.7,3.53.72,6.75,5.6,10.29,3.77,2.74,1.53,10.71,1,13.69-1.82,9.53-7.34,47.08,21.92,59.07,15.26,6.25,31.11,1.09,31.11,1.09Z" style="fill:#ffc9ae"/><path d="M231.56,316.23l-8.71,28.15s-15.84,5.17-31.1-1.09c-24.14-9.89-24.61-37.19-23-51.79-.23,15,3.46,35.27,23.55,43.5,15.25,6.25,31.1,1.09,31.1,1.09l5.48-17.7C229.75,317.72,230.65,317,231.56,316.23Z" style="fill:#ffb890"/><path d="M284.2,316.24c36,30.25,56.35-10.81,48.25-32,0,0-10.5,6-11-1.07s6.61-2.07,9.63-4.75,1.89-6.34-.89-7.25-4,0-4.62,3.5c-.52,3.16-5.44,3.55-6.53.88s-.4-11.4,12.31-11.76c.37-1.82-3.68-16.92,3.24-16.83,5.53.07,3.36,12.16,3.24,15.55,1.94-5.69,2.19-15.22,8-12.32s-3.33,15.74-3.33,15.74,6.24-10.57,10-5.67c2.7,3.53-.72,6.75-5.59,10.29-3.78,2.74-1.54,10.71-1,13.69,1.82,9.53,7.33,47.08-21.93,59.07-15.26,6.25-31.1,1.09-31.1,1.09Z" style="fill:#ffc9ae"/><path d="M284.23,316.23l8.71,28.15s15.84,5.17,31.1-1.09c24.15-9.89,24.61-37.19,23-51.79.24,15-3.45,35.27-23.54,43.5-15.26,6.25-31.11,1.09-31.11,1.09l-5.47-17.7C286.05,317.72,285.14,317,284.23,316.23Z" style="fill:#ffb890"/><path d="M301.79,322.55c-4.22-.56-15.76-5.65-20.12-8.3-10.74-8.49-35.75-9-46.68-.81-1,.77-17.11,9.54-21.4,9.11-3.49-.34-4.56,28.69,0,29.95,1.66.46,3.23.78,4.57,1-.6,19-1.12,48.47,2.27,52.27,4.12,4.62,70.71,4.62,74.82,0,3.41-3.82,2.75-33.34,2.1-52.3a42.42,42.42,0,0,0,4.44-1C306.35,351.24,305.27,323,301.79,322.55Z" style="fill:#363636"/><path d="M265.72,302.3H250c0,9.63-.88,14.44,7.88,14.44S265.72,311.93,265.72,302.3Z" style="fill:#ffb890"/><path d="M344.58,417.92c-3.74-15.34-29.08-19.87-42.71-19.62H216c-13.63-.25-39,4.28-42.71,19.62-3.7,15.17.65,44.11,85.63,27.71C343.93,462,348.28,433.09,344.58,417.92Z" style="fill:#073d4c"/><path d="M344.58,418.06c4.36,15.53-.73,45.15-88.47,27.4,0,0,2.6-16.74-1.4-28.16C305.72,399,341.1,405.68,344.58,418.06Z" style="fill:#074559"/><path d="M256.11,445.45s.28-1.77.51-4.55c78.77,15.6,89.76-7.54,87.77-23.43a5.8,5.8,0,0,1,.19.59C349,433.59,343.85,463.21,256.11,445.45Z" style="fill:#073d4c"/><path d="M291.07,450.89a49,49,0,0,1-9-.2c-12.74-1.25-28.89-5.65-28.89-5.65l8.9-23.52s12.3-.52,22.21-.44c4.92,0,9.25.23,11.2.71C304.07,423.92,304.37,449.59,291.07,450.89Z" style="fill:#ffbe13"/><path d="M261.9,428c.33,0,19.92.66,19.34.93s-1.32,12.46-1.32,12.46-19.84-2.78-19.63-3.1S261.9,428,261.9,428Z" style="fill:#919191"/><path d="M291.07,450.89a49,49,0,0,1-9-.2c-2.68-3.93-4.05-9.68-3.39-15.88a24.93,24.93,0,0,1,5.61-13.73c4.92,0,9.25.23,11.2.71C304.07,423.92,304.37,449.59,291.07,450.89Z" style="fill:#fff"/><path d="M291.07,450.89A37.07,37.07,0,0,1,286,451l1-.07c13.3-1.29,13-27,4.41-29.1a35.36,35.36,0,0,0-7.08-.72c3.94,0,8.61.07,11.2.71C304.07,423.92,304.37,449.59,291.07,450.89Z" style="fill:#d1d1d1"/><path d="M277.84,443.77a1.22,1.22,0,0,1-1.17-.9c-1-3.58-.42-8.08.33-11.41a17.31,17.31,0,0,0-2.36,10,1.22,1.22,0,1,1-2.43.28c-.79-6.64,3.6-15.22,7.06-15.81a1.24,1.24,0,0,1,1.36,1.63c0,.09-3.2,9-1.61,14.61a1.21,1.21,0,0,1-.84,1.51A1.33,1.33,0,0,1,277.84,443.77Z" style="fill:#d1d1d1"/><path d="M268.46,442.34a1.22,1.22,0,0,1-1.21-1.08c-.79-6.65,3.6-15.23,7.06-15.81a1.22,1.22,0,0,1,.41,2.41c-1.45.25-5.77,6.92-5,13.11a1.22,1.22,0,0,1-1.07,1.36Z" style="fill:#d1d1d1"/><path d="M263.5,441.81a1.22,1.22,0,0,1-1.21-1.08c-.79-6.64,3.6-15.22,7.06-15.81a1.23,1.23,0,0,1,.41,2.42c-1.45.24-5.77,6.91-5,13.1a1.22,1.22,0,0,1-1.07,1.36Z" style="fill:#d1d1d1"/><path d="M277.89,443.34a1.17,1.17,0,0,1-.45-.09c-3.26-1.3-5.75-10.61-3.59-16.94a1.23,1.23,0,0,1,2.32.8c-2,5.9.81,13.32,2.17,13.87a1.22,1.22,0,0,1-.45,2.36Z" style="fill:#fff"/><path d="M272.93,442.81a1.38,1.38,0,0,1-.45-.08c-3.26-1.3-5.75-10.62-3.59-16.94a1.23,1.23,0,1,1,2.32.79c-2,5.9.81,13.33,2.17,13.87a1.22,1.22,0,0,1-.45,2.36Z" style="fill:#fff"/><path d="M268,442.29a1.25,1.25,0,0,1-.46-.09c-3.25-1.3-5.74-10.61-3.58-16.94a1.23,1.23,0,0,1,2.32.79c-2,5.9.81,13.33,2.17,13.87a1.23,1.23,0,0,1,.69,1.59A1.24,1.24,0,0,1,268,442.29Z" style="fill:#fff"/><path d="M299.11,409.25c-4.15,3.38-77.92,3.88-82.63,0s-10-62.69-7.2-65.52,93.12-2.56,97,0S303.26,405.86,299.11,409.25Z" style="fill:#c9c9c9"/><path d="M302.62,397.52c-1.2,6.32-2.44,10.86-3.5,11.72-4.15,3.38-77.93,3.89-82.64,0s-10-62.68-7.2-65.51c.39-.39,4.57,38.23,16.65,48.68C247.08,410.71,287.72,406.2,302.62,397.52Z" style="fill:#c9c9c9;opacity:0.21;mix-blend-mode:multiply"/><circle cx="257.98" cy="376.84" r="12.09" style="fill:#fff"/><path d="M256.42,362.67s-4.65-7.66-7.14-2.67C248,362.67,256.42,362.67,256.42,362.67Z" style="fill:#fff"/><path d="M259,362.67s4.66-7.66,7.14-2.67C267.42,362.67,259,362.67,259,362.67Z" style="fill:#fff"/><path d="M202.16,405.16c19,1.22,49.81,11.65,62,14.82-1.82,2.86-4.59,25.75-3.36,26.94-88.49,17.94-91.2-14.41-87.43-29.23C174.51,413,182.17,403.87,202.16,405.16Z" style="fill:#0c5870"/><path d="M261.09,446.92c-82.21,16.67-90.38-10.08-88.1-25.84,2.36,15,19.31,31.42,88.1,17.48Z" style="fill:#074559"/><path d="M296.52,264.8a1.24,1.24,0,0,1-.4.19,17.44,17.44,0,0,1-3.58.48l-1.29.07h-.2l-1,0-.85,0c-.49,0-1,0-1.51,0-15,.3-44.94-.92-59.09-1.56l-.76,0-2.07-.09-1-.05c-2.5-.11-3.94-.19-3.94-.19a14.29,14.29,0,0,1-1.32-1.68c-2.79-3.95-6-11-4.15-12.4,2.16-1.69,5.4-.42,5.47-1.41s-5.11-8.59-3-11,2.1-.28,3-1.13c.53-.49-1-4.06-1.28-7.66,0-.49-.06-1-.06-1.46,0-2.1.61-4,2.39-5.25a10.47,10.47,0,0,0,2.39-2c1.39-1.76-.3-2.31,2-3.6,3.05-1.69,7,.84,7,.84s5.49-10.27,8.31-10.7,2.53,3.8,4.94,3.24,5.91-5.49,8.87-6.48c4.27-1.42-1.21,4.51.84,4.51s6.62-5.64,13.24-6.62c2.25,2-1,5.21,4.22,6.06s2.82,5.35,6.2,6.9,3,.42,6.34,1.55,2.15,2.25,3.11,5.91.13,4.37,3.72,6.34,7.36,3.52,5.47,7.89-2.19,7.46,0,6.61,2.63-1,2.06,1.56-4.78,8.45-1.26,8.45S299.72,262.29,296.52,264.8Z" style="fill:#b64401"/><path d="M296.52,264.8a1.24,1.24,0,0,1-.4.19,17.44,17.44,0,0,1-3.58.48l-1.29.07h-.2l-1,0-.85,0c-.49,0-1,0-1.51,0-15,.3-44.94-.92-59.09-1.56l-.76,0-2.07-.09-1-.05c-2.5-.11-3.94-.19-3.94-.19a14.29,14.29,0,0,1-1.32-1.68c-2.79-3.95-6-11-4.15-12.4,2.16-1.69,5.4-.42,5.47-1.41s-5.11-8.59-3-11,2.1-.28,3-1.13c.53-.49-1-4.06-1.28-7.66,0-.49-.06-1-.06-1.46,0-2.1.61-4,2.39-5.25a10.47,10.47,0,0,0,2.39-2c1.39-1.76-.3-2.31,2-3.6,3.05-1.69,7,.84,7,.84s5.49-10.27,8.31-10.7,2.53,3.8,4.94,3.24,5.91-5.49,8.87-6.48c4.27-1.42-1.21,4.51.84,4.51s6.62-5.64,13.24-6.62c2.25,2-1,5.21,4.22,6.06s2.82,5.35,6.2,6.9,3,.42,6.34,1.55,2.15,2.25,3.11,5.91.13,4.37,3.72,6.34,7.36,3.52,5.47,7.89-2.19,7.46,0,6.61,2.63-1,2.06,1.56-4.78,8.45-1.26,8.45S299.72,262.29,296.52,264.8Z" style="fill:#b64401"/><path d="M293.44,263.14c0,.27,0,.53,0,.79a1.93,1.93,0,0,1-1.31,1.72,2,2,0,0,1-1.29.07l-.07,0a.27.27,0,0,1-.12,0,2.44,2.44,0,0,1-1,0,2,2,0,0,1-.84-.36,1.78,1.78,0,0,1-.57-.79,2,2,0,0,1-.1-.75,31.18,31.18,0,0,0-.89-9.12,1.85,1.85,0,0,1,1.6-2.34h0q-.24-1-.54-2v0a24.57,24.57,0,0,0-1.23-3.18c-.06-.13-.12-.25-.19-.37s-.13-.25-.19-.36l0,0c0-.09-.1-.19-.15-.28a4.15,4.15,0,0,0-.32-.53,15.13,15.13,0,0,0-1.45-2l-.13-.15c-2.7-3.09-6.45-5-10.4-6.61-9.49-3.77-20.52-3.49-30.46-1.16a2.61,2.61,0,0,1-2,3.27c-5,1.68-8.91,4.35-13.08,7.3h0l-1.65,1.17a28.53,28.53,0,0,1-.48,5.27,2.77,2.77,0,0,1-.11.48,26,26,0,0,1,1.51,4.93l.06.08a3.94,3.94,0,0,1,.7,1.13,4,4,0,0,1-.52,4.05h0a4.59,4.59,0,0,1-.71.82l-.06.06a5.33,5.33,0,0,1-1,1.34,6,6,0,0,1-1.82,1.15c-.19.06-.38.13-.58.18l-.33.09a6.21,6.21,0,0,1-4.32-.61,10.54,10.54,0,0,1-2.33-1.79,5.49,5.49,0,0,1,1.47-1.93,4.59,4.59,0,0,1,.71-.5c-2.79-4-6-11-4.15-12.4,2.16-1.69,5.4-.42,5.47-1.41s-5.11-8.59-3-11,2.1-.28,3-1.13c.53-.49-1-4.06-1.27-7.66l0,0a14.21,14.21,0,0,1-.12-1.44c0-2.1.61-4.05,2.39-5.25a10.47,10.47,0,0,0,2.39-2,.6.6,0,0,1,.45.75c-1,2.87-2.12,5.07-1,8.12a28.39,28.39,0,0,1,2.18-2.21,1.84,1.84,0,0,1,2.84,2.28,8.81,8.81,0,0,1,1.77.27c1.25-2.85,2.67-5.55,5.81-6.91,1.18-.51,2.78.34,2.33,1.8-.11.36-.24.77-.37,1.22.29-.5.53-.9.67-1.11a4.05,4.05,0,0,1,4.79-1.25c1.66-1.59,3.35-3.15,5.08-4.64,2.88-2.46,5.61-4.14,9.45-3.58,2.42.36,2.54,4,.66,5-.62.39-1.23.81-1.82,1.24a15.38,15.38,0,0,0-1.82,1.71v0c-.15.22-1.39,1.76-2.19,2.65l.1.19a32.68,32.68,0,0,0,6.44-2.27,22.78,22.78,0,0,1,8.59-2,3.24,3.24,0,0,1,3.09,3.77c2.89.11,5.78.12,8.69,0a1.73,1.73,0,0,1,1.64,2.14,7.67,7.67,0,0,1-.49,1.79,23.64,23.64,0,0,1,2.37-.19.8.8,0,0,1,.22,1.57c-1.63.54-3.3.94-4.95,1.41a1.24,1.24,0,0,1-1.43-1.71,13.54,13.54,0,0,1-3.63.69,34.56,34.56,0,0,1,5.31,2.07C289.69,238.23,293.75,251.63,293.44,263.14Z" style="fill:#b64401;opacity:0.31;mix-blend-mode:multiply"/><path d="M227.16,282.19a3.75,3.75,0,0,1-.48,0c-10-.55-12.09-12.22-9.37-17.68a5.74,5.74,0,0,1,1.47-1.93,5.2,5.2,0,0,1,.72-.5c2.14-1.29,3.95-.41,5.24.8a9.35,9.35,0,0,1,1,1.12,9.53,9.53,0,0,1,1,1.49,2.08,2.08,0,0,1,.12.22Z" style="fill:#ffb890"/><path d="M222.5,271.73c0-.21.07-.43.12-.64a12.57,12.57,0,0,1,1.87-3.82.33.33,0,0,0-.44-.45c-2.49,1.5-4.66,4.71-3.62,7.72.8,2.31,4.59,3.84,5.81,1C227.2,273.4,224.89,270.24,222.5,271.73Z" style="fill:#f29b62"/><path d="M287.58,283.3h-.06l-.43,0v-.56l.33-15.94a9.49,9.49,0,0,1,.69-1.17,10.15,10.15,0,0,1,1.58-1.82,4.07,4.07,0,0,1,5.77-.14,5.29,5.29,0,0,1,1.12,1.3C299.81,270.1,298,282.72,287.58,283.3Z" style="fill:#ffb890"/><path d="M291.28,272.87a5.12,5.12,0,0,0-.12-.64,12.57,12.57,0,0,0-1.87-3.82c-.19-.27.17-.61.44-.45,2.49,1.5,4.66,4.71,3.62,7.73-.8,2.31-4.59,3.83-5.81,1C286.58,274.54,288.89,271.39,291.28,272.87Z" style="fill:#f29b62"/><path d="M289.35,255.3c0,3,0,5.83-.12,8.53,0,.6,0,1.2-.06,1.79q-.15,3.84-.48,7.31c-.15,1.62-.33,3.18-.56,4.67-.29,2-.64,3.87-1.07,5.64a.13.13,0,0,1,0,.06c-1.25,5.14-3.13,9.35-5.9,12.62-4.84,5.72-12.41,8.59-24.15,8.59-11.91,0-19.54-2.95-24.38-8.85a28.91,28.91,0,0,1-5.17-10.45c-.28-1-.54-2-.77-3-.4-1.81-.72-3.73-1-5.76-.2-1.44-.36-3-.49-4.52-.21-2.5-.36-5.16-.45-8,0-.35,0-.71,0-1.07q-.11-3.62-.1-7.55C224.64,225.31,289.35,225.31,289.35,255.3Z" style="fill:#ffc9ae"/><path d="M282.1,294.72c-.3.41-.62.81-1,1.2-4.84,5.72-12.41,8.59-24.15,8.59-11.91,0-19.54-2.95-24.38-8.85a28.91,28.91,0,0,1-5.17-10.45c-.28-1-.54-2-.77-3-.4-1.81-.72-3.73-1-5.76-.2-1.44-.36-3-.49-4.52-.21-2.5-.36-5.16-.45-8,0-.35,0-.71,0-1.07q-.11-3.62-.1-7.55a18.62,18.62,0,0,1,7.11-14.71,18.13,18.13,0,0,0-3.48,10.87c0,2.63,0,5.14.1,7.55,0,.36,0,.72,0,1.07q.13,4.2.45,8c.13,1.56.29,3.07.48,4.51q.39,3,1,5.76c.23,1.06.49,2.07.77,3.05a28.91,28.91,0,0,0,5.17,10.45c4.84,5.9,12.47,8.85,24.38,8.85C270.39,300.67,277.27,298.69,282.1,294.72Z" style="fill:#ffb890"/><path d="M241.24,277.79c-3.7,0-7.44-2.91-7.44-8.47a1.23,1.23,0,1,1,2.45,0c0,4.13,2.59,6,5,6s5-1.89,5-6a1.23,1.23,0,1,1,2.45,0C248.67,274.88,244.93,277.79,241.24,277.79Z" style="fill:#b64401"/><path d="M274,277.79c-3.69,0-7.43-2.91-7.43-8.47a1.23,1.23,0,1,1,2.45,0c0,4.13,2.58,6,5,6s5-1.89,5-6a1.23,1.23,0,1,1,2.45,0C281.46,274.88,277.72,277.79,274,277.79Z" style="fill:#b64401"/><path d="M244.5,253.26a1.22,1.22,0,0,1-1-.57c-.82-1.29-1.61-2-2.22-2s-1.41.71-2.22,2a1.22,1.22,0,0,1-2.07-1.31c1.33-2.11,2.74-3.14,4.29-3.14s2.95,1,4.29,3.14a1.23,1.23,0,0,1-.38,1.69A1.2,1.2,0,0,1,244.5,253.26Z" style="fill:#b64401"/><path d="M277.28,253.26a1.21,1.21,0,0,1-1-.57c-.82-1.29-1.61-2-2.23-2s-1.4.71-2.22,2a1.22,1.22,0,1,1-2.07-1.31c1.34-2.11,2.75-3.14,4.29-3.14s3,1,4.3,3.14a1.23,1.23,0,0,1-1,1.88Z" style="fill:#b64401"/><path d="M258.09,293.33h0a2,2,0,0,1-2-2v-3a2,2,0,0,1,2-2h0a2,2,0,0,1,2,2v3A2,2,0,0,1,258.09,293.33Z" style="fill:#b64401"/><g style="opacity:0.68"><path d="M242.39,288.15a7.76,7.76,0,0,1-7.76,7.77,7.91,7.91,0,0,1-2-.26,28.91,28.91,0,0,1-5.17-10.45,7.76,7.76,0,0,1,14.94,2.94Z" style="fill:#f29d86"/><path d="M287.12,283.68h-.07a30.1,30.1,0,0,1-5.9,12.61h-.09a7.7,7.7,0,0,1-7.36-5.19,7.8,7.8,0,0,1,7.36-10.34,7.71,7.71,0,0,1,5.57,2.37,4.78,4.78,0,0,1,.43.48A.34.34,0,0,1,287.12,283.68Z" style="fill:#f29d86"/></g></g></g></svg>