<svg id="Layer_1" data-name="Layer 1" xmlns="http://www.w3.org/2000/svg" viewBox="0 0 54.96 30.55" class="" style=""><title>synchronize-logo</title><path d="M36.53,21.32V18.88a.34.34,0,0,1,.33-.34H42.4a.34.34,0,0,0,.33-.32c.39-6.6-.4-4.56-5.87-4.81a.35.35,0,0,1-.33-.33v-2a.34.34,0,0,1,.34-.33h6.31a.34.34,0,0,0,.33-.34V5.61a.33.33,0,0,0-.33-.33H30.72a.32.32,0,0,0-.32.37c1.84,17-7.34,23.21,12.82,21.38a.34.34,0,0,0,.31-.32c.52-7.35-.92-4.64-6.68-5.05A.36.36,0,0,1,36.53,21.32Z" style="fill:none;stroke:#fff;stroke-miterlimit:10;stroke-width:0.75px" class="ILKXnrdd_0"></path><path d="M4.5,26.68V5.87a.58.58,0,0,1,.59-.59h7.25a.6.6,0,0,1,.57.42l3.47,11.66a.59.59,0,0,0,1.13,0L21,5.7a.58.58,0,0,1,.56-.42h6.33a.58.58,0,0,1,.59.59V26.68a.59.59,0,0,1-.59.6H23.09a.59.59,0,0,1-.59-.6V21a.59.59,0,0,0-1.16-.16l-1.68,6a.59.59,0,0,1-.57.44H13.78a.59.59,0,0,1-.57-.44l-1.58-6a.59.59,0,0,0-1.16.14l-.05,5.67a.59.59,0,0,1-.59.59H5.09A.59.59,0,0,1,4.5,26.68Z" style="fill:none;stroke:#fff;stroke-miterlimit:10;stroke-width:0.75px" class="ILKXnrdd_1"></path><path style="fill:none;stroke:#fff;stroke-miterlimit:10;stroke-width:0.75px" d="M44.99,24.08A3.1,3.1 0,1,1 51.190000000000005,24.08A3.1,3.1 0,1,1 44.99,24.08" class="ILKXnrdd_2"></path><style data-made-with="vivus-instant">.ILKXnrdd_0{stroke-dasharray:93 95;stroke-dashoffset:94;animation:ILKXnrdd_draw_0 8200ms linear 0ms infinite,ILKXnrdd_fade 8200ms linear 0ms infinite;}.ILKXnrdd_1{stroke-dasharray:132 134;stroke-dashoffset:133;animation:ILKXnrdd_draw_1 8200ms linear 0ms infinite,ILKXnrdd_fade 8200ms linear 0ms infinite;}.ILKXnrdd_2{stroke-dasharray:20 22;stroke-dashoffset:21;animation:ILKXnrdd_draw_2 8200ms linear 0ms infinite,ILKXnrdd_fade 8200ms linear 0ms infinite;}@keyframes ILKXnrdd_draw{100%{stroke-dashoffset:0;}}@keyframes ILKXnrdd_fade{0%{stroke-opacity:1;}95.1219512195122%{stroke-opacity:1;}100%{stroke-opacity:0;}}@keyframes ILKXnrdd_draw_0{9.75609756097561%{stroke-dashoffset: 94}58.536585365853654%{ stroke-dashoffset: 0;}100%{ stroke-dashoffset: 0;}}@keyframes ILKXnrdd_draw_1{9.75609756097561%{stroke-dashoffset: 133}58.536585365853654%{ stroke-dashoffset: 0;}100%{ stroke-dashoffset: 0;}}@keyframes ILKXnrdd_draw_2{9.75609756097561%{stroke-dashoffset: 21}58.536585365853654%{ stroke-dashoffset: 0;}100%{ stroke-dashoffset: 0;}}</style></svg>