<svg id="Layer_5" enable-background="new 0 0 64 64" height="512" viewBox="0 0 64 64" width="512" xmlns="http://www.w3.org/2000/svg"><path d="m39 43h2c1.654 0 3-1.346 3-3v-9.554c1.311.367 2.651.554 4 .554 8.271 0 15-6.729 15-15s-6.729-15-15-15c-6.368 0-11.808 3.996-13.98 9.606l-3.606-3.606h-5.494c-.488-3.387-3.401-6-6.92-6-3.86 0-7 3.14-7 7s3.14 7 7 7c3.519 0 6.432-2.613 6.92-6h4.666l3.773 3.773c-.229 1.041-.359 2.118-.359 3.227 0 3.249 1.076 6.409 3.023 9h-.544c-3.569-5.016-9.31-8-15.479-8-10.477 0-19 8.523-19 19v4c0 6.171 2.98 11.921 8 15.489v7.511h2v-8.569l-.443-.297c-4.732-3.168-7.557-8.452-7.557-14.134v-3h21.101c.465 2.279 2.484 4 4.899 4h7.184c.169.474.449.889.816 1.22v3.06l-2.937.979-.976 10.741h-9.087c-3.86 0-7-3.141-7-7v-1h-2v1c0 4.963 4.038 9 9 9h1v4h2v-4h7.913l1.023-11.258 3.064-1.021zm-21-30c-2.757 0-5-2.243-5-5s2.243-5 5-5 5 2.243 5 5-2.243 5-5 5zm24 27c0 .552-.449 1-1 1h-2c-.551 0-1-.448-1-1v-14c0-.551.449-1 1-1h2c.551 0 1 .449 1 1zm15.359-15h-8.359c-.551 0-1-.449-1-1s.449-1 1-1h5c1.654 0 3-1.346 3-3s-1.346-3-3-3h-1c-.551 0-1-.449-1-1s.449-1 1-1h7.949c.026.331.051.662.051 1 0 3.493-1.392 6.662-3.641 9zm3.278-12h-7.637c-1.654 0-3 1.346-3 3s1.346 3 3 3h1c.551 0 1 .449 1 1s-.449 1-1 1h-5c-1.654 0-3 1.346-3 3s1.346 3 3 3h5.897c-2.002 1.26-4.362 2-6.897 2-1.352 0-2.693-.229-4-.656v-2.344c0-1.654-1.346-3-3-3h-2c-.598 0-1.154.181-1.622.484-.956-1.356-1.632-2.881-2.014-4.484h9.636c1.654 0 3-1.346 3-3s-1.346-3-3-3h-2c-.551 0-1-.449-1-1s.449-1 1-1h2c1.654 0 3-1.346 3-3s-1.346-3-3-3h-3.897c2.002-1.26 4.362-2 6.897-2 6.134 0 11.277 4.276 12.637 10zm-21.996-6h6.359c.551 0 1 .449 1 1s-.449 1-1 1h-2c-1.654 0-3 1.346-3 3s1.346 3 3 3h2c.551 0 1 .449 1 1s-.449 1-1 1h-9.956c-.026-.332-.044-.665-.044-1 0-3.493 1.392-6.662 3.641-9zm-18.641 12c5.026 0 9.738 2.214 12.953 6h-3.953c-2.414 0-4.434 1.721-4.899 4h-19.575c2.674-5.888 8.597-10 15.474-10zm7 12c.551 0 1 .449 1 1v2c0 .552-.449 1-1 1h-23.949c.081-1.382.309-2.725.702-4zm-.816 6h.816c1.654 0 3-1.346 3-3v-2c0-1.654-1.346-3-3-3h-.816c.414-1.161 1.514-2 2.816-2h7v12h-7c-1.302 0-2.402-.839-2.816-2z"/><path d="m18 5c-1.654 0-3 1.346-3 3s1.346 3 3 3 3-1.346 3-3-1.346-3-3-3zm0 4c-.551 0-1-.449-1-1s.449-1 1-1 1 .449 1 1-.449 1-1 1z"/><path d="m58.288 44.956-.576 1.916c2.259.679 3.288 1.579 3.288 2.128 0 1.194-3.988 3-10 3-1.014 0-1.965-.055-2.854-.146-.091-.889-.146-1.84-.146-2.854 0-6.012 1.806-10 3-10 .549 0 1.45 1.028 2.127 3.287l1.916-.574c-.912-3.039-2.348-4.713-4.043-4.713-3.283 0-5 6.037-5 12 0 .859.04 1.717.111 2.561-3.187-.61-5.111-1.732-5.111-2.561 0-.549 1.029-1.449 3.288-2.128l-.576-1.916c-3.039.914-4.712 2.35-4.712 4.044 0 2.413 3.265 3.977 7.362 4.638.661 4.096 2.225 7.362 4.638 7.362 1.695 0 3.131-1.674 4.043-4.713l-1.916-.574c-.677 2.259-1.578 3.287-2.127 3.287-.829 0-1.951-1.924-2.561-5.111.844.071 1.702.111 2.561.111 5.963 0 12-1.718 12-5 0-1.694-1.673-3.13-4.712-4.044z"/><path d="m50 48h2v2h-2z"/><path d="m20 25h2v2h-2z"/><path d="m16 25h2v2h-2z"/><path d="m12 25h2v2h-2z"/><path d="m20 39h2v2h-2z"/><path d="m16 39h2v2h-2z"/><path d="m12 39h2v2h-2z"/></svg>