<svg id="Layer_1" data-name="Layer 1" xmlns="http://www.w3.org/2000/svg" viewBox="0 0 480 480"><path d="M369,368H353v32H209v16H353v24a24,24,0,0,1-24,24H153a24.08,24.08,0,0,1-20.8-12l-13.86,8A40.17,40.17,0,0,0,153,480H329a40.05,40.05,0,0,0,40-40Z" style="fill:#fff"/><path d="M233,432h16v16H233Z" style="fill:#fff"/><path d="M281,216V200H256.59A104,104,0,0,0,161,104.41V80H145v24.41a104.19,104.19,0,0,0-16,2.49V64H257V48H129V40a24,24,0,0,1,24-24H329a24,24,0,0,1,15.87,6l10.59-12A40,40,0,0,0,329,0H153a40.05,40.05,0,0,0-40,40v72a104.14,104.14,0,0,0-63.59,88H25v16H49.43A103.52,103.52,0,0,0,145,311.63V336h16V311.63A103.52,103.52,0,0,0,256.57,216ZM145,280v15.63a87.65,87.65,0,0,1-32-9.23V272a40,40,0,0,1,80,0v14.4a87.89,87.89,0,0,1-32,9.26V280Zm-16-88a24,24,0,1,1,24,24A24,24,0,0,1,129,192Zm82.66,81.6c-.86.8-1.78,1.44-2.66,2.18V272a56,56,0,0,0-30.23-49.66,40,40,0,1,0-51.54,0A56,56,0,0,0,97,272v3.82c-.89-.73-1.81-1.41-2.66-2.18A88,88,0,0,1,65.43,216H81V200H65.41A88.09,88.09,0,0,1,145,120.41V136h16V120.41A88.09,88.09,0,0,1,240.59,200H225v16h15.57a88,88,0,0,1-28.91,57.64Z" style="fill:#fff"/><path d="M457,144a8,8,0,0,0,8-8V40a8,8,0,0,0-8-8H281a8,8,0,0,0-8,8v96a8,8,0,0,0,8,8ZM289,48H449v80H289Z" style="fill:#fff"/><path d="M305,64h32V80H305Z" style="fill:#fff"/><path d="M353,64h80V80H353Z" style="fill:#fff"/><path d="M305,96H433v16H305Z" style="fill:#fff"/><path d="M455.59,160a25.34,25.34,0,0,0-16.8,6.4L369,227.92V160H353v80h2.31L309.8,280.16A56,56,0,0,0,257,336v14.11a20.81,20.81,0,0,1-11.57,18.73A8,8,0,0,0,249,384h56a56,56,0,0,0,55.84-52.8l113.81-129A25.41,25.41,0,0,0,455.59,160ZM305,368H268.41A36.93,36.93,0,0,0,273,350.11V336a40.05,40.05,0,0,1,36.8-39.87l35.07,35.07A40,40,0,0,1,305,368ZM462.65,191.64l-110,124.68-28-27.95,124.68-110a9.42,9.42,0,0,1,13.29,13.29Z" style="fill:#fff"/><path d="M9,440H185a8,8,0,0,0,8-8V368a8,8,0,0,0-8-8H129V320H113v40H9a8,8,0,0,0-8,8v64A8,8,0,0,0,9,440Zm8-64H177v48H17Z" style="fill:#fff"/><path d="M33,392H73v16H33Z" style="fill:#fff"/><path d="M89,392h72v16H89Z" style="fill:#fff"/><path d="M9,112H89a8,8,0,0,0,8-8V40a8,8,0,0,0-8-8H9a8,8,0,0,0-8,8v64A8,8,0,0,0,9,112Zm8-64H81V96H17Z" style="fill:#fff"/><path d="M33,64H65V80H33Z" style="fill:#fff"/></svg>